<svg xmlns="http://www.w3.org/2000/svg" xmlns:xlink="http://www.w3.org/1999/xlink" width="1920" zoomAndPan="magnify" viewBox="0 0 1440 337.499995" height="450" preserveAspectRatio="xMidYMid meet" version="1.0"><defs><clipPath id="bbc326a971"><path d="M 1.066406 0 L 1438.933594 0 L 1438.933594 337 L 1.066406 337 Z M 1.066406 0 " clip-rule="nonzero"/></clipPath><radialGradient gradientTransform="matrix(1, 0, 0, 1, 1.065099, 0)" gradientUnits="userSpaceOnUse" r="738.417295" cx="718.934901" id="e9dd5151fc" cy="168.500367" fx="718.934901" fy="168.500367"><stop stop-opacity="1" stop-color="rgb(27.604675%, 21.432495%, 7.000732%)" offset="0"/><stop stop-opacity="1" stop-color="rgb(27.238464%, 21.122742%, 6.816101%)" offset="0.03125"/><stop stop-opacity="1" stop-color="rgb(26.896667%, 20.832825%, 6.643677%)" offset="0.0585938"/><stop stop-opacity="1" stop-color="rgb(26.554871%, 20.542908%, 6.471252%)" offset="0.0859375"/><stop stop-opacity="1" stop-color="rgb(26.213074%, 20.252991%, 6.298828%)" offset="0.113281"/><stop stop-opacity="1" stop-color="rgb(25.895691%, 19.984436%, 6.138611%)" offset="0.140625"/><stop stop-opacity="1" stop-color="rgb(25.602722%, 19.735718%, 5.990601%)" offset="0.164062"/><stop stop-opacity="1" stop-color="rgb(25.309753%, 19.487%, 5.844116%)" offset="0.1875"/><stop stop-opacity="1" stop-color="rgb(25.016785%, 19.238281%, 5.696106%)" offset="0.210938"/><stop stop-opacity="1" stop-color="rgb(24.723816%, 18.989563%, 5.548096%)" offset="0.234375"/><stop stop-opacity="1" stop-color="rgb(24.455261%, 18.762207%, 5.412292%)" offset="0.257812"/><stop stop-opacity="1" stop-color="rgb(24.211121%, 18.556213%, 5.290222%)" offset="0.277344"/><stop stop-opacity="1" stop-color="rgb(23.96698%, 18.348694%, 5.166626%)" offset="0.296875"/><stop stop-opacity="1" stop-color="rgb(23.722839%, 18.141174%, 5.044556%)" offset="0.316406"/><stop stop-opacity="1" stop-color="rgb(23.478699%, 17.935181%, 4.920959%)" offset="0.335938"/><stop stop-opacity="1" stop-color="rgb(23.234558%, 17.727661%, 4.797363%)" offset="0.355469"/><stop stop-opacity="1" stop-color="rgb(22.990417%, 17.520142%, 4.675293%)" offset="0.375"/><stop stop-opacity="1" stop-color="rgb(22.770691%, 17.333984%, 4.563904%)" offset="0.394531"/><stop stop-opacity="1" stop-color="rgb(22.575378%, 17.167664%, 4.466248%)" offset="0.410156"/><stop stop-opacity="1" stop-color="rgb(22.380066%, 17.002869%, 4.367065%)" offset="0.425781"/><stop stop-opacity="1" stop-color="rgb(22.087097%, 16.75415%, 4.219055%)" offset="0.441406"/><stop stop-opacity="1" stop-color="rgb(21.696472%, 16.423035%, 4.022217%)" offset="0.472656"/><stop stop-opacity="1" stop-color="rgb(21.330261%, 16.113281%, 3.837585%)" offset="0.503906"/><stop stop-opacity="1" stop-color="rgb(20.988464%, 15.823364%, 3.665161%)" offset="0.53125"/><stop stop-opacity="1" stop-color="rgb(20.646667%, 15.533447%, 3.492737%)" offset="0.558594"/><stop stop-opacity="1" stop-color="rgb(20.329285%, 15.263367%, 3.334045%)" offset="0.585938"/><stop stop-opacity="1" stop-color="rgb(20.036316%, 15.014648%, 3.186035%)" offset="0.609375"/><stop stop-opacity="1" stop-color="rgb(19.767761%, 14.787292%, 3.050232%)" offset="0.632812"/><stop stop-opacity="1" stop-color="rgb(19.523621%, 14.581299%, 2.928162%)" offset="0.652344"/><stop stop-opacity="1" stop-color="rgb(19.27948%, 14.373779%, 2.804565%)" offset="0.671875"/><stop stop-opacity="1" stop-color="rgb(19.059753%, 14.187622%, 2.693176%)" offset="0.691406"/><stop stop-opacity="1" stop-color="rgb(18.864441%, 14.021301%, 2.59552%)" offset="0.707031"/><stop stop-opacity="1" stop-color="rgb(18.571472%, 13.772583%, 2.44751%)" offset="0.722656"/><stop stop-opacity="1" stop-color="rgb(18.205261%, 13.46283%, 2.262878%)" offset="0.753906"/><stop stop-opacity="1" stop-color="rgb(17.863464%, 13.172913%, 2.090454%)" offset="0.78125"/><stop stop-opacity="1" stop-color="rgb(17.546082%, 12.902832%, 1.930237%)" offset="0.808594"/><stop stop-opacity="1" stop-color="rgb(17.277527%, 12.675476%, 1.795959%)" offset="0.832031"/><stop stop-opacity="1" stop-color="rgb(17.0578%, 12.489319%, 1.68457%)" offset="0.851562"/><stop stop-opacity="1" stop-color="rgb(16.764832%, 12.240601%, 1.53656%)" offset="0.867188"/><stop stop-opacity="1" stop-color="rgb(16.423035%, 11.950684%, 1.364136%)" offset="0.898438"/><stop stop-opacity="1" stop-color="rgb(16.15448%, 11.723328%, 1.229858%)" offset="0.921875"/><stop stop-opacity="1" stop-color="rgb(15.861511%, 11.476135%, 1.081848%)" offset="0.941406"/><stop stop-opacity="1" stop-color="rgb(15.4953%, 11.164856%, 0.897217%)" offset="0.96875"/><stop stop-opacity="1" stop-color="rgb(15.299988%, 10.998535%, 0.799561%)" offset="1"/></radialGradient><clipPath id="236f72c8fd"><path d="M 1.066406 324 L 16.035156 324 L 16.035156 337 L 1.066406 337 Z M 1.066406 324 " clip-rule="nonzero"/></clipPath></defs><g clip-path="url(#bbc326a971)"><path fill="#ffffff" d="M 1.066406 0 L 1438.933594 0 L 1438.933594 337 L 1.066406 337 Z M 1.066406 0 " fill-opacity="1" fill-rule="nonzero"/><path fill="url(#e9dd5151fc)" d="M 1.066406 0 L 1.066406 337 L 1438.933594 337 L 1438.933594 0 Z M 1.066406 0 " fill-rule="nonzero"/></g><g clip-path="url(#236f72c8fd)"><path fill="#000000" d="M -36.074219 324.066406 C -36.488281 324.078125 -36.882812 324.167969 -37.257812 324.335938 C -37.636719 324.5 -37.96875 324.734375 -38.253906 325.027344 C -38.542969 325.324219 -38.761719 325.664062 -38.917969 326.042969 C -39.070312 326.425781 -39.148438 326.824219 -39.148438 327.234375 C -39.148438 327.644531 -39.070312 328.042969 -38.917969 328.425781 C -38.761719 328.804688 -38.542969 329.144531 -38.253906 329.441406 C -37.96875 329.734375 -37.636719 329.964844 -37.257812 330.132812 C -36.882812 330.300781 -36.488281 330.390625 -36.074219 330.402344 C -34.570312 330.40625 -33.070312 330.480469 -31.574219 330.628906 C -30.074219 330.777344 -28.589844 331 -27.113281 331.292969 C -25.636719 331.585938 -24.179688 331.953125 -22.742188 332.390625 C -21.300781 332.828125 -19.886719 333.332031 -18.496094 333.910156 C -17.105469 334.484375 -15.746094 335.128906 -14.421875 335.835938 C -13.09375 336.542969 -11.804688 337.316406 -10.554688 338.152344 C -9.304688 338.984375 -8.097656 339.878906 -6.933594 340.832031 C -5.769531 341.785156 -4.65625 342.792969 -3.59375 343.855469 C -2.527344 344.917969 -1.519531 346.03125 -0.566406 347.191406 C 0.390625 348.351562 1.285156 349.558594 2.121094 350.804688 C 2.957031 352.054688 3.730469 353.34375 4.441406 354.667969 C 5.152344 355.992188 5.792969 357.347656 6.371094 358.734375 C 6.949219 360.121094 7.453125 361.535156 7.890625 362.972656 C 8.332031 364.410156 8.695312 365.863281 8.992188 367.335938 C 9.285156 368.8125 9.507812 370.292969 9.65625 371.789062 C 9.804688 373.285156 9.882812 374.78125 9.882812 376.285156 C 9.894531 376.695312 9.984375 377.089844 10.152344 377.46875 C 10.320312 377.84375 10.550781 378.175781 10.847656 378.460938 C 11.144531 378.746094 11.484375 378.96875 11.867188 379.121094 C 12.246094 379.277344 12.644531 379.355469 13.058594 379.355469 C 13.46875 379.355469 13.867188 379.277344 14.25 379.121094 C 14.632812 378.96875 14.96875 378.746094 15.265625 378.460938 C 15.5625 378.175781 15.792969 377.84375 15.960938 377.46875 C 16.128906 377.089844 16.21875 376.695312 16.230469 376.285156 C 16.230469 374.574219 16.144531 372.871094 15.972656 371.167969 C 15.804688 369.46875 15.550781 367.777344 15.214844 366.101562 C 14.882812 364.425781 14.464844 362.769531 13.964844 361.132812 C 13.46875 359.496094 12.890625 357.890625 12.234375 356.3125 C 11.578125 354.730469 10.84375 353.1875 10.039062 351.679688 C 9.230469 350.171875 8.351562 348.707031 7.398438 347.289062 C 6.445312 345.867188 5.425781 344.496094 4.339844 343.171875 C 3.253906 341.851562 2.105469 340.585938 0.894531 339.378906 C -0.316406 338.167969 -1.585938 337.023438 -2.910156 335.9375 C -4.230469 334.851562 -5.605469 333.835938 -7.03125 332.882812 C -8.453125 331.933594 -9.921875 331.054688 -11.429688 330.25 C -12.941406 329.441406 -14.484375 328.710938 -16.066406 328.054688 C -17.648438 327.402344 -19.261719 326.824219 -20.898438 326.328125 C -22.535156 325.828125 -24.195312 325.414062 -25.875 325.078125 C -27.554688 324.742188 -29.246094 324.492188 -30.949219 324.320312 C -32.65625 324.152344 -34.363281 324.066406 -36.074219 324.066406 Z M -36.074219 324.066406 " fill-opacity="1" fill-rule="nonzero"/></g></svg>