<svg xmlns="http://www.w3.org/2000/svg" xmlns:xlink="http://www.w3.org/1999/xlink" width="50" zoomAndPan="magnify" viewBox="0 0 37.5 36.000001" height="48" preserveAspectRatio="xMidYMid meet" version="1.0"><defs><clipPath id="5bab431c71"><path d="M 0.261719 33.855469 L 1 33.855469 L 1 35.027344 L 0.261719 35.027344 Z M 0.261719 33.855469 " clip-rule="nonzero"/></clipPath><clipPath id="6c2ed9a9a3"><path d="M 5 0.386719 L 30 0.386719 L 30 12 L 5 12 Z M 5 0.386719 " clip-rule="nonzero"/></clipPath><clipPath id="c0ca4b0bec"><path d="M 5 22 L 35.246094 22 L 35.246094 33 L 5 33 Z M 5 22 " clip-rule="nonzero"/></clipPath><clipPath id="909ef0c27e"><path d="M 1.679688 24 L 8 24 L 8 34.683594 L 1.679688 34.683594 Z M 1.679688 24 " clip-rule="nonzero"/></clipPath></defs><g clip-path="url(#5bab431c71)"><path fill="#000000" d="M 0.929688 35.929688 L 0.167969 35.230469 L -0.273438 35.628906 L -0.433594 35.378906 C -0.191406 35.226562 -0.0351562 34.976562 -0.0351562 34.6875 C -0.0351562 34.230469 -0.441406 33.855469 -0.941406 33.855469 C -1.441406 33.855469 -1.847656 34.230469 -1.847656 34.6875 C -1.847656 34.96875 -1.695312 35.214844 -1.464844 35.367188 L -1.636719 35.636719 L -2.058594 35.226562 L -2.820312 35.929688 L -2.023438 36.6875 L -1.984375 36.648438 L -1.964844 36.667969 L -1.90625 36.878906 C -1.886719 36.960938 -1.851562 37.042969 -1.804688 37.117188 L -1.886719 37.191406 C -1.925781 37.226562 -1.949219 37.273438 -1.949219 37.324219 C -1.949219 37.375 -1.925781 37.425781 -1.886719 37.460938 C -1.855469 37.488281 -1.816406 37.507812 -1.773438 37.515625 C -1.777344 37.570312 -1.757812 37.625 -1.710938 37.667969 C -1.667969 37.707031 -1.613281 37.726562 -1.558594 37.730469 C -1.554688 37.777344 -1.53125 37.820312 -1.492188 37.855469 C -1.453125 37.894531 -1.398438 37.914062 -1.335938 37.914062 C -1.332031 37.914062 -1.328125 37.914062 -1.324219 37.914062 C -1.316406 37.945312 -1.296875 37.976562 -1.269531 38.003906 C -1.230469 38.039062 -1.179688 38.058594 -1.128906 38.058594 C -1.078125 38.058594 -1.027344 38.039062 -0.988281 38.003906 L -0.929688 37.953125 C -0.90625 37.960938 -0.878906 37.964844 -0.851562 37.964844 C -0.792969 37.964844 -0.742188 37.945312 -0.703125 37.910156 C -0.6875 37.894531 -0.675781 37.878906 -0.664062 37.863281 C -0.625 37.894531 -0.574219 37.910156 -0.523438 37.910156 C -0.472656 37.910156 -0.417969 37.890625 -0.375 37.851562 C -0.359375 37.835938 -0.34375 37.816406 -0.335938 37.796875 C -0.304688 37.8125 -0.273438 37.820312 -0.238281 37.820312 C -0.179688 37.820312 -0.128906 37.800781 -0.0898438 37.761719 C -0.0507812 37.726562 -0.0273438 37.675781 -0.0273438 37.625 C -0.0273438 37.582031 -0.0429688 37.539062 -0.0703125 37.507812 C -0.0507812 37.5 -0.0351562 37.484375 -0.0195312 37.472656 C 0.0625 37.394531 0.0664062 37.273438 -0.015625 37.199219 L -0.0820312 37.140625 C -0.0390625 37.070312 -0.0078125 36.996094 0.015625 36.917969 L 0.078125 36.703125 L 0.0976562 36.679688 L 0.152344 36.632812 L 0.171875 36.613281 L 0.578125 37.261719 L 0.707031 37.191406 L 0.28125 36.515625 L 0.414062 36.390625 Z M -1.300781 35.0625 L -1.300781 35.300781 C -1.339844 35.28125 -1.375 35.261719 -1.40625 35.238281 L -1.40625 34.894531 C -1.40625 34.828125 -1.347656 34.777344 -1.273438 34.777344 L -1.191406 34.777344 L -0.957031 35.09375 L -0.695312 34.777344 L -0.625 34.777344 C -0.554688 34.777344 -0.496094 34.828125 -0.496094 34.894531 L -0.496094 35.253906 C -0.523438 35.269531 -0.554688 35.289062 -0.585938 35.304688 L -0.585938 35.066406 L -0.734375 35.066406 L -0.734375 35.359375 C -0.800781 35.375 -0.867188 35.386719 -0.941406 35.386719 C -1.015625 35.386719 -1.085938 35.375 -1.15625 35.355469 L -1.15625 35.0625 Z M -1.167969 34.410156 C -1.167969 34.300781 -1.070312 34.210938 -0.949219 34.210938 C -0.832031 34.210938 -0.734375 34.300781 -0.734375 34.410156 C -0.734375 34.519531 -0.832031 34.609375 -0.949219 34.609375 C -1.070312 34.609375 -1.167969 34.519531 -1.167969 34.410156 Z M -0.878906 34.777344 L -0.949219 34.859375 L -1.011719 34.777344 Z M -1.699219 34.6875 C -1.699219 34.304688 -1.359375 33.992188 -0.941406 33.992188 C -0.523438 33.992188 -0.183594 34.304688 -0.183594 34.6875 C -0.183594 34.851562 -0.246094 35.003906 -0.347656 35.121094 L -0.347656 34.894531 C -0.347656 34.753906 -0.472656 34.640625 -0.625 34.640625 L -0.6875 34.640625 C -0.625 34.578125 -0.585938 34.5 -0.585938 34.410156 C -0.585938 34.226562 -0.75 34.074219 -0.949219 34.074219 C -1.152344 34.074219 -1.316406 34.226562 -1.316406 34.410156 C -1.316406 34.5 -1.277344 34.578125 -1.214844 34.640625 L -1.273438 34.640625 C -1.429688 34.640625 -1.554688 34.753906 -1.554688 34.894531 L -1.554688 35.097656 C -1.644531 34.980469 -1.699219 34.839844 -1.699219 34.6875 Z M -0.941406 35.519531 C -0.804688 35.519531 -0.675781 35.492188 -0.5625 35.445312 L -0.382812 35.726562 L -0.664062 35.980469 L -0.675781 35.992188 L -0.894531 36.035156 C -0.90625 36.039062 -0.917969 36.042969 -0.933594 36.042969 C -1.003906 36.058594 -1.082031 36.074219 -1.15625 36.09375 L -1.277344 36.042969 L -1.300781 36.019531 L -1.261719 35.984375 L -1.527344 35.738281 L -1.335938 35.4375 C -1.214844 35.492188 -1.082031 35.519531 -0.941406 35.519531 Z M -2.023438 36.492188 L -2.078125 36.4375 L -1.527344 35.933594 L -1.46875 35.984375 Z M -2.0625 35.421875 L -1.683594 35.789062 L -1.628906 35.835938 L -2.183594 36.339844 L -2.613281 35.929688 Z M -1.800781 37.324219 C -1.800781 37.3125 -1.792969 37.296875 -1.78125 37.285156 L -1.722656 37.234375 C -1.699219 37.261719 -1.671875 37.289062 -1.644531 37.316406 L -1.695312 37.363281 C -1.71875 37.386719 -1.757812 37.386719 -1.78125 37.363281 C -1.792969 37.355469 -1.800781 37.339844 -1.800781 37.324219 Z M -1.605469 37.476562 L -1.589844 37.460938 L -1.539062 37.414062 L -1.433594 37.511719 L -1.5 37.574219 C -1.511719 37.585938 -1.53125 37.59375 -1.550781 37.59375 C -1.574219 37.59375 -1.589844 37.585938 -1.605469 37.574219 C -1.636719 37.546875 -1.636719 37.5 -1.605469 37.476562 Z M -1.390625 37.757812 C -1.402344 37.746094 -1.410156 37.730469 -1.410156 37.710938 C -1.410156 37.695312 -1.402344 37.675781 -1.390625 37.664062 L -1.328125 37.609375 L -1.226562 37.703125 L -1.269531 37.742188 L -1.285156 37.757812 C -1.300781 37.773438 -1.316406 37.777344 -1.335938 37.777344 C -1.355469 37.777344 -1.375 37.773438 -1.390625 37.757812 Z M -1.164062 37.90625 C -1.183594 37.890625 -1.183594 37.859375 -1.164062 37.839844 L -1.121094 37.796875 L -1.046875 37.867188 L -1.089844 37.90625 C -1.113281 37.925781 -1.144531 37.925781 -1.164062 37.90625 Z M -0.191406 37.667969 C -0.207031 37.675781 -0.21875 37.683594 -0.238281 37.683594 C -0.253906 37.683594 -0.269531 37.675781 -0.28125 37.667969 L -0.378906 37.578125 L -0.851562 37.140625 L -0.890625 37.105469 L -0.996094 37.203125 L -0.480469 37.675781 C -0.457031 37.699219 -0.457031 37.734375 -0.480469 37.757812 C -0.503906 37.78125 -0.546875 37.777344 -0.570312 37.757812 L -0.703125 37.632812 L -1.0625 37.304688 L -1.101562 37.269531 L -1.203125 37.367188 L -1.164062 37.402344 L -0.808594 37.730469 C -0.78125 37.753906 -0.78125 37.789062 -0.808594 37.8125 C -0.820312 37.824219 -0.835938 37.828125 -0.851562 37.828125 C -0.867188 37.828125 -0.882812 37.824219 -0.898438 37.8125 L -1.527344 37.230469 C -1.644531 37.125 -1.722656 36.992188 -1.761719 36.847656 L -1.828125 36.597656 L -1.878906 36.554688 L -1.402344 36.117188 L -1.363281 36.15625 L -1.328125 36.171875 C -1.351562 36.1875 -1.378906 36.203125 -1.398438 36.222656 L -1.671875 36.472656 C -1.75 36.546875 -1.746094 36.667969 -1.664062 36.742188 C -1.625 36.78125 -1.566406 36.800781 -1.515625 36.800781 C -1.460938 36.800781 -1.410156 36.78125 -1.371094 36.746094 L -1.214844 36.601562 C -1.144531 36.625 -1 36.664062 -0.828125 36.648438 L -0.121094 37.296875 C -0.0976562 37.316406 -0.0976562 37.351562 -0.125 37.375 C -0.148438 37.398438 -0.1875 37.398438 -0.207031 37.378906 L -0.71875 36.910156 L -0.824219 37.003906 L -0.773438 37.050781 L -0.195312 37.585938 C -0.183594 37.59375 -0.175781 37.609375 -0.175781 37.625 C -0.175781 37.640625 -0.179688 37.65625 -0.191406 37.667969 Z M -0.0585938 36.632812 L -0.128906 36.882812 C -0.144531 36.9375 -0.164062 36.988281 -0.191406 37.039062 L -0.65625 36.617188 C -0.628906 36.605469 -0.597656 36.597656 -0.570312 36.585938 L -0.628906 36.460938 C -0.929688 36.582031 -1.195312 36.460938 -1.199219 36.460938 L -1.246094 36.4375 L -1.476562 36.652344 C -1.5 36.671875 -1.535156 36.667969 -1.558594 36.644531 C -1.585938 36.625 -1.585938 36.589844 -1.566406 36.570312 L -1.296875 36.320312 C -1.203125 36.234375 -1.050781 36.207031 -0.902344 36.175781 C -0.890625 36.175781 -0.875 36.171875 -0.863281 36.167969 L -0.601562 36.117188 L -0.558594 36.078125 L -0.00390625 36.585938 Z M 0.0976562 36.488281 L -0.453125 35.980469 L 0.167969 35.421875 L 0.71875 35.929688 L 0.3125 36.292969 Z M 0.0976562 36.488281 " fill-opacity="1" fill-rule="nonzero"/></g><path fill="#c89d8d" d="M 17.125 5.691406 L 18.265625 5.691406 L 18.265625 24.847656 L 17.125 24.847656 Z M 17.125 5.691406 " fill-opacity="1" fill-rule="evenodd"/><g clip-path="url(#6c2ed9a9a3)"><path fill="#c89d8d" d="M 5.847656 11.515625 L 5.847656 6.601562 C 5.847656 6.3125 6.054688 6.078125 6.328125 6.035156 L 28.839844 0.578125 C 29.203125 0.492188 29.542969 0.765625 29.542969 1.132812 L 29.546875 1.132812 L 29.546875 6.046875 L 28.402344 6.046875 L 28.402344 1.859375 L 6.988281 7.050781 L 6.988281 11.515625 Z M 5.847656 11.515625 " fill-opacity="1" fill-rule="evenodd"/></g><path fill="#c89d8d" d="M 18.449219 1.144531 C 18.871094 1.242188 19.257812 1.421875 19.609375 1.675781 C 19.960938 1.929688 20.25 2.242188 20.476562 2.613281 C 20.707031 2.980469 20.855469 3.382812 20.921875 3.8125 C 20.992188 4.242188 20.976562 4.667969 20.878906 5.089844 C 20.777344 5.511719 20.601562 5.902344 20.347656 6.253906 C 20.09375 6.605469 19.785156 6.898438 19.414062 7.125 C 19.046875 7.355469 18.648438 7.503906 18.21875 7.574219 C 17.792969 7.644531 17.367188 7.628906 16.945312 7.527344 C 16.523438 7.429688 16.136719 7.25 15.785156 6.996094 C 15.433594 6.742188 15.144531 6.429688 14.917969 6.0625 C 14.6875 5.691406 14.539062 5.289062 14.472656 4.863281 C 14.402344 4.433594 14.417969 4.003906 14.515625 3.582031 C 14.617188 3.160156 14.792969 2.769531 15.046875 2.417969 C 15.300781 2.066406 15.609375 1.773438 15.980469 1.546875 C 16.347656 1.316406 16.746094 1.167969 17.175781 1.097656 C 17.601562 1.027344 18.027344 1.042969 18.449219 1.144531 Z M 18.449219 1.144531 " fill-opacity="1" fill-rule="nonzero"/><path fill="#d6b4a8" d="M 17.335938 7.59375 C 15.699219 7.414062 14.425781 6.023438 14.425781 4.335938 C 14.425781 2.644531 15.699219 1.253906 17.335938 1.074219 C 18.96875 1.253906 20.242188 2.644531 20.242188 4.335938 C 20.242188 6.023438 18.96875 7.414062 17.335938 7.59375 Z M 17.335938 7.59375 " fill-opacity="1" fill-rule="evenodd"/><path fill="#ffbf31" d="M 32.492188 7.25 L 32.492188 15.433594 C 32.492188 15.757812 32.230469 16.023438 31.90625 16.023438 L 26.042969 16.023438 C 25.722656 16.023438 25.457031 15.757812 25.457031 15.433594 L 25.457031 7.25 C 25.457031 6.902344 25.597656 6.605469 25.867188 6.390625 L 28.285156 4.433594 C 28.691406 4.105469 29.257812 4.105469 29.664062 4.433594 L 32.082031 6.390625 C 32.351562 6.605469 32.492188 6.902344 32.492188 7.25 Z M 28.976562 6.734375 C 28.394531 6.734375 27.921875 7.210938 27.921875 7.792969 C 27.921875 8.378906 28.394531 8.851562 28.976562 8.851562 C 29.558594 8.851562 30.027344 8.378906 30.027344 7.792969 C 30.027344 7.210938 29.558594 6.734375 28.976562 6.734375 Z M 28.976562 6.734375 " fill-opacity="1" fill-rule="evenodd"/><path fill="#e33f65" d="M 9.933594 12.714844 L 9.933594 20.898438 C 9.933594 21.222656 9.671875 21.488281 9.347656 21.488281 L 3.484375 21.488281 C 3.164062 21.488281 2.898438 21.222656 2.898438 20.898438 L 2.898438 12.714844 C 2.898438 12.371094 3.039062 12.074219 3.308594 11.855469 L 5.726562 9.902344 C 6.132812 9.574219 6.699219 9.574219 7.105469 9.902344 L 9.523438 11.855469 C 9.792969 12.074219 9.933594 12.371094 9.933594 12.714844 Z M 6.417969 12.203125 C 5.835938 12.203125 5.363281 12.675781 5.363281 13.261719 C 5.363281 13.84375 5.835938 14.320312 6.417969 14.320312 C 7 14.320312 7.472656 13.84375 7.472656 13.261719 C 7.472656 12.675781 7 12.203125 6.417969 12.203125 Z M 6.417969 12.203125 " fill-opacity="1" fill-rule="evenodd"/><path fill="#ffe177" d="M 31.335938 16.023438 L 26.042969 16.023438 C 25.722656 16.023438 25.457031 15.757812 25.457031 15.433594 L 25.457031 7.25 C 25.457031 6.902344 25.597656 6.605469 25.867188 6.390625 L 28.285156 4.433594 C 28.410156 4.335938 28.546875 4.265625 28.691406 4.226562 C 28.832031 4.265625 28.96875 4.335938 29.09375 4.433594 L 31.511719 6.390625 C 31.78125 6.605469 31.921875 6.902344 31.921875 7.25 L 31.921875 15.433594 C 31.921875 15.757812 31.65625 16.023438 31.335938 16.023438 Z M 28.40625 6.734375 C 27.820312 6.734375 27.351562 7.210938 27.351562 7.792969 C 27.351562 8.378906 27.820312 8.851562 28.40625 8.851562 C 28.503906 8.851562 28.597656 8.839844 28.691406 8.8125 C 28.78125 8.839844 28.875 8.851562 28.976562 8.851562 C 29.558594 8.851562 30.027344 8.378906 30.027344 7.792969 C 30.027344 7.210938 29.558594 6.734375 28.976562 6.734375 C 28.875 6.734375 28.78125 6.75 28.691406 6.773438 C 28.597656 6.75 28.503906 6.734375 28.40625 6.734375 Z M 28.40625 6.734375 " fill-opacity="1" fill-rule="evenodd"/><path fill="#fa6e85" d="M 8.777344 21.488281 L 3.484375 21.488281 C 3.164062 21.488281 2.898438 21.222656 2.898438 20.898438 L 2.898438 12.714844 C 2.898438 12.371094 3.039062 12.074219 3.308594 11.855469 L 5.726562 9.902344 C 5.851562 9.800781 5.988281 9.734375 6.132812 9.695312 C 6.273438 9.734375 6.410156 9.800781 6.535156 9.902344 L 8.953125 11.855469 C 9.222656 12.074219 9.363281 12.371094 9.363281 12.714844 L 9.363281 20.898438 C 9.363281 21.222656 9.101562 21.488281 8.777344 21.488281 Z M 5.847656 12.203125 C 5.265625 12.203125 4.792969 12.675781 4.792969 13.261719 C 4.792969 13.84375 5.265625 14.320312 5.847656 14.320312 C 5.945312 14.320312 6.039062 14.304688 6.132812 14.28125 C 6.222656 14.304688 6.316406 14.320312 6.417969 14.320312 C 7 14.320312 7.472656 13.84375 7.472656 13.261719 C 7.472656 12.675781 7 12.203125 6.417969 12.203125 C 6.316406 12.203125 6.222656 12.214844 6.132812 12.242188 C 6.039062 12.214844 5.945312 12.203125 5.847656 12.203125 Z M 5.847656 12.203125 " fill-opacity="1" fill-rule="evenodd"/><g clip-path="url(#c0ca4b0bec)"><path fill="#f0b16e" d="M 8.308594 25.410156 C 7.878906 25.441406 7.4375 25.460938 6.992188 25.476562 L 5.164062 28.980469 L 6.992188 32.765625 C 11.210938 31.976562 15.535156 32.761719 19.777344 32.992188 C 21.457031 33.085938 26.476562 29.804688 30.160156 27.394531 C 31.621094 26.441406 32.878906 25.617188 33.667969 25.179688 C 34.832031 24.28125 35.246094 23.59375 35.230469 23.113281 C 35.210938 22.347656 33.75 22.101562 33.152344 22.546875 C 33.125 22.570312 33.09375 22.59375 33.058594 22.609375 L 24.96875 27.0625 L 24.964844 27.0625 C 24.917969 27.089844 24.863281 27.109375 24.808594 27.125 C 24.53125 27.363281 24.210938 27.570312 23.855469 27.703125 C 23.433594 27.863281 22.980469 27.917969 22.515625 27.832031 L 18.125 26.992188 L 16.242188 27.335938 C 15.917969 27.394531 15.613281 27.167969 15.574219 26.84375 C 15.539062 26.546875 15.742188 26.269531 16.039062 26.214844 L 17.992188 25.859375 C 18.070312 25.839844 18.152344 25.835938 18.230469 25.851562 L 22.726562 26.707031 C 23.296875 26.816406 23.890625 26.484375 24.25 26.082031 C 24.328125 25.96875 24.394531 25.839844 24.4375 25.707031 C 24.503906 25.515625 24.511719 25.402344 24.511719 25.210938 C 24.511719 23.988281 20.648438 23.308594 19.488281 23.066406 C 17.125 22.578125 16.816406 22.515625 14.15625 23.726562 C 13.230469 24.148438 11.589844 24.914062 10.828125 25.074219 C 9.988281 25.246094 9.148438 25.347656 8.308594 25.410156 Z M 8.308594 25.410156 " fill-opacity="1" fill-rule="evenodd"/><path fill="#fcd4a9" d="M 8.308594 25.410156 C 7.878906 25.441406 7.4375 25.460938 6.992188 25.476562 L 5.34375 28.632812 L 7.046875 32.164062 C 11.265625 31.375 15.59375 32.160156 19.835938 32.390625 C 21.511719 32.484375 26.535156 29.203125 30.21875 26.792969 C 31.679688 25.839844 32.9375 25.015625 33.722656 24.578125 C 34.574219 23.921875 35.027344 23.375 35.199219 22.945312 C 34.984375 22.3125 33.703125 22.136719 33.152344 22.546875 C 33.125 22.570312 33.09375 22.59375 33.058594 22.609375 L 24.96875 27.0625 C 24.917969 27.089844 24.863281 27.109375 24.808594 27.125 C 24.53125 27.363281 24.210938 27.570312 23.855469 27.703125 C 23.433594 27.863281 22.980469 27.917969 22.515625 27.832031 L 18.125 26.992188 L 16.242188 27.335938 C 15.917969 27.394531 15.613281 27.167969 15.574219 26.84375 C 15.53125 26.480469 15.621094 25.699219 16.097656 25.613281 L 18.050781 25.257812 C 18.128906 25.238281 18.207031 25.234375 18.289062 25.25 L 22.78125 26.105469 C 23.351562 26.214844 23.945312 25.882812 24.308594 25.480469 C 24.355469 25.417969 24.496094 25.148438 24.5 25.089844 C 24.261719 23.945312 20.609375 23.300781 19.488281 23.066406 C 17.125 22.578125 16.816406 22.515625 14.15625 23.726562 C 13.230469 24.148438 11.589844 24.914062 10.828125 25.074219 C 9.988281 25.246094 9.148438 25.347656 8.308594 25.410156 Z M 8.308594 25.410156 " fill-opacity="1" fill-rule="evenodd"/></g><g clip-path="url(#909ef0c27e)"><path fill="#14b5a2" d="M 6.300781 34.675781 L 2.808594 34.675781 C 2.183594 34.675781 1.675781 34.164062 1.675781 33.539062 L 1.675781 25.238281 C 1.675781 24.613281 2.183594 24.105469 2.808594 24.105469 L 6.300781 24.105469 C 6.921875 24.105469 7.429688 24.613281 7.429688 25.238281 L 7.429688 33.539062 C 7.429688 34.164062 6.921875 34.675781 6.300781 34.675781 Z M 6.300781 34.675781 " fill-opacity="1" fill-rule="evenodd"/><path fill="#19cfba" d="M 1.675781 32.804688 L 1.675781 25.238281 C 1.675781 24.613281 2.183594 24.105469 2.808594 24.105469 L 6.300781 24.105469 C 6.921875 24.105469 7.429688 24.613281 7.429688 25.238281 L 7.425781 33.621094 C 7.210938 33.855469 6.898438 34.003906 6.554688 34.003906 L 2.871094 34.003906 C 2.214844 34.003906 1.675781 33.464844 1.675781 32.804688 Z M 1.675781 32.804688 " fill-opacity="1" fill-rule="evenodd"/></g></svg>