<svg xmlns="http://www.w3.org/2000/svg" xmlns:xlink="http://www.w3.org/1999/xlink" width="50" zoomAndPan="magnify" viewBox="0 0 37.5 36.000001" height="48" preserveAspectRatio="xMidYMid meet" version="1.0"><defs><clipPath id="a43cf09ac6"><path d="M 13 1.171875 L 24 1.171875 L 24 12 L 13 12 Z M 13 1.171875 " clip-rule="nonzero"/></clipPath><clipPath id="4754662573"><path d="M 1.347656 23 L 12 23 L 12 34 L 1.347656 34 Z M 1.347656 23 " clip-rule="nonzero"/></clipPath><clipPath id="c1573fdbed"><path d="M 25 23 L 35.644531 23 L 35.644531 34 L 25 34 Z M 25 23 " clip-rule="nonzero"/></clipPath><clipPath id="520a24036c"><path d="M 1.347656 19 L 35.644531 19 L 35.644531 34.007812 L 1.347656 34.007812 Z M 1.347656 19 " clip-rule="nonzero"/></clipPath><clipPath id="2e2d235c76"><path d="M 7 1.171875 L 30 1.171875 L 30 29 L 7 29 Z M 7 1.171875 " clip-rule="nonzero"/></clipPath><clipPath id="bfc3d0906b"><path d="M 0.261719 33.855469 L 1 33.855469 L 1 35.027344 L 0.261719 35.027344 Z M 0.261719 33.855469 " clip-rule="nonzero"/></clipPath></defs><path fill="#c6d0dc" d="M 27.867188 15.585938 L 23.957031 11.65625 L 19.757812 15.800781 L 19.753906 15.800781 L 19.660156 15.898438 L 19.273438 16.285156 L 17.847656 16.597656 C 17.320312 16.710938 16.761719 16.816406 16.25 17 L 15.292969 16.535156 L 14.824219 16.0625 L 15.054688 15.832031 L 14.054688 14.828125 L 13.5 14.269531 L 10.964844 11.589844 L 7.101562 15.472656 L 10.207031 18.695312 L 11.1875 19.714844 L 11.371094 19.53125 L 11.859375 20.019531 L 12.222656 21.511719 C 12.378906 22.136719 12.632812 22.726562 12.972656 23.261719 L 12.183594 23.96875 C 11.875 24.277344 11.875 24.78125 12.183594 25.09375 C 12.476562 25.386719 12.941406 25.402344 13.25 25.140625 L 13.226562 25.167969 C 12.878906 25.511719 12.878906 26.074219 13.226562 26.417969 C 13.542969 26.742188 14.050781 26.761719 14.394531 26.484375 C 14.144531 26.824219 14.171875 27.304688 14.476562 27.613281 C 14.8125 27.953125 15.359375 27.953125 15.695312 27.613281 L 15.792969 27.515625 C 15.503906 27.808594 15.503906 28.277344 15.792969 28.570312 C 16.082031 28.863281 16.550781 28.863281 16.84375 28.570312 L 17.410156 28 L 17.53125 28.128906 C 17.84375 28.316406 18.386719 28.277344 18.65625 28.007812 C 18.972656 27.6875 18.96875 27.167969 18.648438 26.847656 L 19.4375 27.636719 C 19.757812 27.960938 20.277344 27.960938 20.59375 27.644531 C 20.910156 27.324219 20.910156 26.804688 20.589844 26.480469 L 21.15625 27.050781 C 21.472656 27.371094 21.988281 27.375 22.308594 27.054688 C 22.625 26.734375 22.625 26.214844 22.304688 25.894531 L 21.589844 25.179688 C 21.898438 25.488281 22.40625 25.480469 22.722656 25.160156 C 23.042969 24.839844 23.050781 24.332031 22.742188 24.023438 L 22.117188 23.316406 C 22.390625 22.839844 22.601562 22.328125 22.742188 21.789062 L 23.136719 20.269531 L 23.667969 19.734375 L 25.125 18.269531 Z M 27.867188 15.585938 " fill-opacity="1" fill-rule="nonzero"/><path fill="#ffffff" d="M 16.078125 14.859375 L 12.210938 18.742188 L 11.230469 17.722656 L 8.125 14.503906 L 11.988281 10.617188 L 14.523438 13.300781 L 15.078125 13.855469 Z M 16.078125 14.859375 " fill-opacity="1" fill-rule="nonzero"/><path fill="#ef835e" d="M 15.078125 13.855469 L 11.230469 17.722656 L 8.125 14.503906 L 11.988281 10.617188 L 14.523438 13.300781 Z M 15.078125 13.855469 " fill-opacity="1" fill-rule="nonzero"/><path fill="#db9923" d="M 28.945312 14.503906 L 26.234375 17.152344 L 24.683594 18.714844 L 23.710938 17.738281 L 20.816406 14.828125 L 25.082031 10.617188 Z M 28.945312 14.503906 " fill-opacity="1" fill-rule="nonzero"/><path fill="#f7c648" d="M 27.976562 13.527344 L 25.1875 16.257812 L 23.710938 17.738281 L 20.816406 14.828125 L 25.082031 10.617188 Z M 27.976562 13.527344 " fill-opacity="1" fill-rule="nonzero"/><path fill="#c6d0dc" d="M 17.429688 25.925781 L 16.214844 24.699219 L 16.210938 24.703125 L 14.980469 23.464844 L 14.984375 23.460938 L 13.863281 22.335938 L 13.207031 22.996094 C 12.898438 23.304688 12.898438 23.808594 13.207031 24.121094 C 13.5 24.414062 13.964844 24.429688 14.273438 24.167969 L 14.246094 24.195312 C 13.902344 24.542969 13.902344 25.101562 14.246094 25.449219 C 14.566406 25.769531 15.074219 25.792969 15.417969 25.515625 C 15.167969 25.851562 15.191406 26.335938 15.5 26.640625 C 15.835938 26.980469 16.378906 26.980469 16.71875 26.640625 L 16.816406 26.542969 C 16.527344 26.835938 16.527344 27.308594 16.816406 27.597656 C 17.105469 27.890625 17.574219 27.890625 17.863281 27.597656 L 18.480469 26.980469 Z M 17.429688 25.925781 " fill-opacity="1" fill-rule="nonzero"/><path fill="#ffffff" d="M 23.140625 22.34375 C 23.414062 21.867188 23.625 21.355469 23.765625 20.816406 L 24.160156 19.296875 L 24.691406 18.761719 L 20.777344 14.828125 L 20.292969 15.316406 L 18.871094 15.625 C 18.34375 15.738281 17.785156 15.847656 17.273438 16.027344 L 16.316406 15.5625 L 15.816406 15.0625 L 12.367188 18.527344 L 12.882812 19.046875 L 13.246094 20.539062 C 13.402344 21.164062 13.65625 21.753906 13.996094 22.289062 L 18.554688 27.15625 C 18.867188 27.34375 19.410156 27.304688 19.675781 27.035156 C 19.996094 26.714844 19.992188 26.195312 19.671875 25.875 L 20.460938 26.667969 C 20.78125 26.988281 21.296875 26.992188 21.617188 26.671875 C 21.933594 26.351562 21.929688 25.832031 21.609375 25.511719 L 22.175781 26.078125 C 22.496094 26.398438 23.011719 26.402344 23.328125 26.082031 C 23.648438 25.761719 23.644531 25.242188 23.328125 24.921875 L 22.613281 24.207031 C 22.921875 24.515625 23.429688 24.507812 23.746094 24.1875 C 24.0625 23.867188 24.070312 23.359375 23.765625 23.050781 Z M 23.140625 22.34375 " fill-opacity="1" fill-rule="nonzero"/><path fill="#c6d0dc" d="M 15.296875 19.648438 C 15.296875 19.648438 15.335938 19.9375 15.808594 20.105469 C 16.125 20.21875 16.492188 20.148438 16.734375 19.941406 L 17.261719 19.496094 C 17.261719 19.496094 19.265625 19.964844 20.433594 19.46875 L 19.339844 18.542969 C 19.339844 18.542969 17.828125 18.796875 16.753906 18.289062 Z M 15.296875 19.648438 " fill-opacity="1" fill-rule="nonzero"/><path fill="#c6d0dc" d="M 23.097656 19.113281 C 23.097656 19.113281 23.097656 20.394531 22.414062 21.582031 L 23.070312 22.226562 C 23.070312 22.226562 23.679688 21.625 24.003906 19.226562 L 24.558594 18.667969 L 24.011719 18.148438 Z M 23.097656 19.113281 " fill-opacity="1" fill-rule="nonzero"/><g clip-path="url(#a43cf09ac6)"><path fill="#59aee4" d="M 23.386719 6.523438 C 23.386719 8.078125 22.664062 9.464844 21.542969 10.363281 C 20.707031 11.035156 19.648438 11.433594 18.5 11.433594 C 17.289062 11.433594 16.183594 10.992188 15.328125 10.261719 C 14.277344 9.359375 13.609375 8.019531 13.609375 6.523438 C 13.609375 3.808594 15.796875 1.609375 18.5 1.609375 C 21.195312 1.609375 23.386719 3.808594 23.386719 6.523438 Z M 23.386719 6.523438 " fill-opacity="1" fill-rule="nonzero"/></g><path fill="#ffffff" d="M 21.542969 7.851562 L 21.542969 10.363281 C 20.707031 11.035156 19.648438 11.433594 18.5 11.433594 C 17.289062 11.433594 16.183594 10.992188 15.328125 10.261719 L 15.328125 7.851562 C 15.328125 7.183594 15.867188 6.644531 16.53125 6.644531 L 20.339844 6.644531 C 21.003906 6.644531 21.542969 7.183594 21.542969 7.851562 Z M 21.542969 7.851562 " fill-opacity="1" fill-rule="nonzero"/><path fill="#ffffff" d="M 20.140625 4.734375 C 20.140625 4.960938 20.097656 5.179688 20.011719 5.390625 C 19.925781 5.597656 19.800781 5.785156 19.640625 5.945312 C 19.484375 6.105469 19.296875 6.230469 19.089844 6.316406 C 18.878906 6.40625 18.664062 6.449219 18.4375 6.449219 C 18.210938 6.449219 17.992188 6.40625 17.78125 6.316406 C 17.574219 6.230469 17.390625 6.105469 17.230469 5.945312 C 17.070312 5.785156 16.945312 5.597656 16.859375 5.390625 C 16.773438 5.179688 16.730469 4.960938 16.730469 4.734375 C 16.730469 4.503906 16.773438 4.285156 16.859375 4.078125 C 16.945312 3.867188 17.070312 3.679688 17.230469 3.519531 C 17.390625 3.359375 17.574219 3.234375 17.78125 3.148438 C 17.992188 3.0625 18.210938 3.019531 18.4375 3.019531 C 18.664062 3.019531 18.878906 3.0625 19.089844 3.148438 C 19.296875 3.234375 19.484375 3.359375 19.640625 3.519531 C 19.800781 3.679688 19.925781 3.867188 20.011719 4.078125 C 20.097656 4.285156 20.140625 4.503906 20.140625 4.734375 Z M 20.140625 4.734375 " fill-opacity="1" fill-rule="nonzero"/><g clip-path="url(#4754662573)"><path fill="#59aee4" d="M 11.578125 28.617188 C 11.578125 30.171875 10.859375 31.558594 9.734375 32.457031 C 8.898438 33.128906 7.84375 33.527344 6.691406 33.527344 C 5.480469 33.527344 4.375 33.085938 3.519531 32.355469 C 2.46875 31.457031 1.800781 30.113281 1.800781 28.617188 C 1.800781 25.902344 3.992188 23.703125 6.691406 23.703125 C 9.390625 23.703125 11.578125 25.902344 11.578125 28.617188 Z M 11.578125 28.617188 " fill-opacity="1" fill-rule="nonzero"/></g><path fill="#ffffff" d="M 9.734375 29.945312 L 9.734375 32.457031 C 8.898438 33.128906 7.84375 33.53125 6.691406 33.53125 C 5.480469 33.53125 4.375 33.085938 3.519531 32.355469 L 3.519531 29.945312 C 3.519531 29.277344 4.058594 28.738281 4.722656 28.738281 L 8.535156 28.738281 C 9.195312 28.738281 9.734375 29.277344 9.734375 29.945312 Z M 9.734375 29.945312 " fill-opacity="1" fill-rule="nonzero"/><path fill="#ffffff" d="M 8.335938 26.828125 C 8.335938 27.054688 8.292969 27.273438 8.203125 27.484375 C 8.117188 27.695312 7.996094 27.878906 7.835938 28.039062 C 7.675781 28.199219 7.488281 28.324219 7.28125 28.410156 C 7.070312 28.5 6.855469 28.542969 6.628906 28.542969 C 6.402344 28.542969 6.183594 28.5 5.976562 28.410156 C 5.765625 28.324219 5.582031 28.199219 5.421875 28.039062 C 5.261719 27.878906 5.136719 27.695312 5.050781 27.484375 C 4.964844 27.273438 4.921875 27.054688 4.921875 26.828125 C 4.921875 26.601562 4.964844 26.382812 5.050781 26.171875 C 5.136719 25.960938 5.261719 25.773438 5.421875 25.613281 C 5.582031 25.453125 5.765625 25.328125 5.976562 25.242188 C 6.183594 25.15625 6.402344 25.113281 6.628906 25.113281 C 6.855469 25.113281 7.070312 25.15625 7.28125 25.242188 C 7.488281 25.328125 7.675781 25.453125 7.835938 25.613281 C 7.996094 25.773438 8.117188 25.960938 8.203125 26.171875 C 8.292969 26.382812 8.335938 26.601562 8.335938 26.828125 Z M 8.335938 26.828125 " fill-opacity="1" fill-rule="nonzero"/><g clip-path="url(#c1573fdbed)"><path fill="#59aee4" d="M 35.226562 28.617188 C 35.226562 30.171875 34.507812 31.558594 33.382812 32.457031 C 32.550781 33.128906 31.492188 33.527344 30.339844 33.527344 C 29.128906 33.527344 28.023438 33.085938 27.167969 32.355469 C 26.117188 31.457031 25.453125 30.113281 25.453125 28.617188 C 25.453125 25.902344 27.640625 23.703125 30.339844 23.703125 C 33.039062 23.703125 35.226562 25.902344 35.226562 28.617188 Z M 35.226562 28.617188 " fill-opacity="1" fill-rule="nonzero"/></g><path fill="#ffffff" d="M 33.382812 29.945312 L 33.382812 32.457031 C 32.550781 33.128906 31.492188 33.53125 30.339844 33.53125 C 29.128906 33.53125 28.023438 33.085938 27.167969 32.355469 L 27.167969 29.945312 C 27.167969 29.277344 27.707031 28.738281 28.371094 28.738281 L 32.183594 28.738281 C 32.847656 28.738281 33.382812 29.277344 33.382812 29.945312 Z M 33.382812 29.945312 " fill-opacity="1" fill-rule="nonzero"/><path fill="#ffffff" d="M 31.984375 26.828125 C 31.984375 27.054688 31.941406 27.273438 31.855469 27.484375 C 31.765625 27.695312 31.644531 27.878906 31.484375 28.039062 C 31.324219 28.199219 31.140625 28.324219 30.929688 28.410156 C 30.722656 28.5 30.503906 28.542969 30.277344 28.542969 C 30.050781 28.542969 29.832031 28.5 29.625 28.410156 C 29.414062 28.324219 29.230469 28.199219 29.070312 28.039062 C 28.910156 27.878906 28.789062 27.695312 28.699219 27.484375 C 28.613281 27.273438 28.570312 27.054688 28.570312 26.828125 C 28.570312 26.601562 28.613281 26.382812 28.699219 26.171875 C 28.789062 25.960938 28.910156 25.773438 29.070312 25.613281 C 29.230469 25.453125 29.414062 25.328125 29.625 25.242188 C 29.832031 25.15625 30.050781 25.113281 30.277344 25.113281 C 30.503906 25.113281 30.722656 25.15625 30.929688 25.242188 C 31.140625 25.328125 31.324219 25.453125 31.484375 25.613281 C 31.644531 25.773438 31.765625 25.960938 31.855469 26.171875 C 31.941406 26.382812 31.984375 26.601562 31.984375 26.828125 Z M 31.984375 26.828125 " fill-opacity="1" fill-rule="nonzero"/><g clip-path="url(#520a24036c)"><path fill="#000000" d="M 30.304688 23.308594 C 27.371094 23.308594 24.984375 25.707031 24.984375 28.65625 C 24.984375 28.832031 24.992188 29.007812 25.007812 29.179688 L 11.988281 29.179688 C 12.003906 29.007812 12.011719 28.832031 12.011719 28.65625 C 12.011719 26.535156 10.777344 24.699219 8.996094 23.835938 L 11.375 19.691406 L 10.621094 19.253906 L 8.171875 23.519531 C 7.699219 23.382812 7.203125 23.308594 6.691406 23.308594 C 3.753906 23.308594 1.367188 25.707031 1.367188 28.65625 C 1.367188 31.609375 3.753906 34.007812 6.691406 34.007812 C 9.144531 34.007812 11.214844 32.328125 11.828125 30.054688 L 25.167969 30.054688 C 25.78125 32.328125 27.851562 34.007812 30.304688 34.007812 C 33.238281 34.007812 35.628906 31.609375 35.628906 28.65625 C 35.628906 25.707031 33.242188 23.308594 30.304688 23.308594 Z M 5.429688 32.949219 L 5.429688 31.070312 L 4.5625 31.070312 L 4.5625 32.589844 C 4.347656 32.472656 4.144531 32.335938 3.957031 32.1875 L 3.957031 29.988281 C 3.957031 29.5625 4.300781 29.21875 4.722656 29.21875 L 5.277344 29.21875 L 6.589844 31.183594 L 8.078125 29.21875 L 8.535156 29.21875 C 8.957031 29.21875 9.300781 29.5625 9.300781 29.988281 L 9.300781 32.28125 C 9.132812 32.402344 8.953125 32.515625 8.769531 32.613281 L 8.769531 31.09375 L 7.898438 31.09375 L 7.898438 32.964844 C 7.515625 33.074219 7.109375 33.132812 6.691406 33.132812 C 6.253906 33.132812 5.832031 33.070312 5.429688 32.949219 Z M 5.355469 26.867188 C 5.355469 26.164062 5.925781 25.589844 6.628906 25.589844 C 7.328125 25.589844 7.898438 26.164062 7.898438 26.867188 C 7.898438 27.574219 7.328125 28.148438 6.628906 28.148438 C 5.925781 28.148438 5.355469 27.574219 5.355469 26.867188 Z M 6.984375 29.21875 L 6.636719 29.679688 L 6.328125 29.21875 Z M 10.171875 31.445312 L 10.171875 29.988281 C 10.171875 29.082031 9.4375 28.34375 8.535156 28.34375 L 8.1875 28.34375 C 8.546875 27.957031 8.769531 27.4375 8.769531 26.867188 C 8.769531 25.683594 7.808594 24.714844 6.628906 24.714844 C 5.449219 24.714844 4.488281 25.683594 4.488281 26.867188 C 4.488281 27.4375 4.710938 27.957031 5.070312 28.34375 L 4.722656 28.34375 C 3.820312 28.34375 3.085938 29.082031 3.085938 29.988281 L 3.085938 31.28125 C 2.554688 30.542969 2.238281 29.636719 2.238281 28.65625 C 2.238281 26.191406 4.234375 24.183594 6.691406 24.183594 C 9.144531 24.183594 11.144531 26.191406 11.144531 28.65625 C 11.144531 29.710938 10.777344 30.679688 10.171875 31.445312 Z M 29.046875 32.949219 L 29.046875 31.070312 L 28.175781 31.070312 L 28.175781 32.589844 C 27.964844 32.472656 27.761719 32.335938 27.570312 32.1875 L 27.570312 29.988281 C 27.570312 29.5625 27.914062 29.21875 28.335938 29.21875 L 28.890625 29.21875 L 30.203125 31.183594 L 31.6875 29.21875 L 32.148438 29.21875 C 32.570312 29.21875 32.914062 29.5625 32.914062 29.988281 L 32.914062 32.28125 C 32.746094 32.402344 32.570312 32.515625 32.386719 32.613281 L 32.386719 31.09375 L 31.515625 31.09375 L 31.515625 32.964844 C 31.128906 33.074219 30.726562 33.132812 30.304688 33.132812 C 29.867188 33.132812 29.445312 33.070312 29.046875 32.949219 Z M 28.972656 26.867188 C 28.972656 26.164062 29.542969 25.589844 30.242188 25.589844 C 30.945312 25.589844 31.515625 26.164062 31.515625 26.867188 C 31.515625 27.574219 30.945312 28.148438 30.242188 28.148438 C 29.542969 28.148438 28.972656 27.574219 28.972656 26.867188 Z M 30.597656 29.21875 L 30.246094 29.679688 L 29.9375 29.21875 Z M 33.785156 31.445312 L 33.785156 29.988281 C 33.785156 29.082031 33.050781 28.34375 32.148438 28.34375 L 31.800781 28.34375 C 32.164062 27.957031 32.386719 27.4375 32.386719 26.867188 C 32.386719 25.683594 31.425781 24.714844 30.242188 24.714844 C 29.0625 24.714844 28.101562 25.683594 28.101562 26.867188 C 28.101562 27.4375 28.324219 27.957031 28.6875 28.34375 L 28.339844 28.34375 C 27.4375 28.34375 26.703125 29.082031 26.703125 29.988281 L 26.703125 31.28125 C 26.167969 30.542969 25.851562 29.636719 25.851562 28.65625 C 25.851562 26.191406 27.851562 24.183594 30.304688 24.183594 C 32.761719 24.183594 34.757812 26.191406 34.757812 28.65625 C 34.757812 29.710938 34.394531 30.679688 33.785156 31.445312 Z M 33.785156 31.445312 " fill-opacity="1" fill-rule="nonzero"/></g><g clip-path="url(#2e2d235c76)"><path fill="#000000" d="M 29.492188 14.507812 L 25.007812 10 L 22.410156 12.566406 L 21.480469 10.949219 C 22.890625 9.988281 23.820312 8.359375 23.820312 6.523438 C 23.820312 3.570312 21.433594 1.171875 18.496094 1.171875 C 15.5625 1.171875 13.175781 3.570312 13.175781 6.523438 C 13.175781 8.320312 14.066406 9.914062 15.425781 10.886719 L 14.414062 12.625 L 11.921875 9.992188 L 7.441406 14.496094 L 12.132812 19.367188 L 12.367188 19.132812 L 12.484375 19.25 L 12.8125 20.601562 C 12.945312 21.140625 13.148438 21.652344 13.410156 22.128906 L 12.9375 22.601562 C 12.707031 22.835938 12.578125 23.144531 12.578125 23.472656 C 12.578125 23.804688 12.707031 24.113281 12.9375 24.347656 C 13.121094 24.53125 13.351562 24.644531 13.589844 24.6875 C 13.574219 25.046875 13.699219 25.410156 13.972656 25.683594 C 14.210938 25.925781 14.53125 26.0625 14.871094 26.070312 C 14.898438 26.375 15.027344 26.660156 15.246094 26.878906 C 15.492188 27.125 15.816406 27.261719 16.160156 27.261719 C 16.191406 27.261719 16.21875 27.257812 16.246094 27.257812 C 16.292969 27.46875 16.398438 27.671875 16.5625 27.835938 C 16.792969 28.066406 17.09375 28.183594 17.394531 28.183594 C 17.695312 28.183594 17.996094 28.066406 18.226562 27.835938 L 18.5625 27.5 C 18.703125 27.554688 18.859375 27.585938 19.015625 27.589844 C 19.019531 27.589844 19.019531 27.589844 19.023438 27.589844 C 19.351562 27.589844 19.664062 27.460938 19.894531 27.226562 C 19.988281 27.132812 20.0625 27.03125 20.117188 26.917969 C 20.351562 27.125 20.644531 27.226562 20.9375 27.226562 C 21.253906 27.226562 21.570312 27.109375 21.808594 26.867188 C 21.917969 26.757812 21.996094 26.636719 22.054688 26.507812 C 22.230469 26.597656 22.425781 26.648438 22.625 26.648438 C 22.625 26.648438 22.628906 26.648438 22.628906 26.648438 C 22.957031 26.648438 23.269531 26.519531 23.503906 26.285156 C 23.738281 26.046875 23.867188 25.734375 23.863281 25.402344 C 23.863281 25.125 23.773438 24.859375 23.605469 24.640625 C 23.714844 24.582031 23.820312 24.507812 23.914062 24.414062 C 24.398438 23.929688 24.40625 23.144531 23.929688 22.671875 L 23.550781 22.289062 C 23.792969 21.835938 23.980469 21.355469 24.113281 20.855469 L 24.472656 19.46875 L 24.609375 19.332031 L 24.914062 19.023438 L 25.039062 18.894531 L 27.425781 23.050781 L 28.179688 22.613281 L 25.675781 18.257812 L 26.460938 17.46875 Z M 16.367188 8.933594 L 16.367188 10.453125 C 16.15625 10.335938 15.953125 10.199219 15.765625 10.050781 L 15.765625 7.851562 C 15.765625 7.425781 16.109375 7.082031 16.53125 7.082031 L 17.027344 7.082031 L 18.394531 9.136719 L 19.945312 7.082031 L 20.339844 7.082031 C 20.765625 7.082031 21.109375 7.425781 21.109375 7.851562 L 21.109375 10.144531 C 20.941406 10.269531 20.761719 10.378906 20.578125 10.476562 L 20.578125 8.957031 L 19.707031 8.957031 L 19.707031 10.828125 C 19.324219 10.9375 18.917969 10.996094 18.496094 10.996094 C 18.058594 10.996094 17.636719 10.933594 17.238281 10.8125 L 17.238281 8.933594 Z M 17.164062 4.734375 C 17.164062 4.027344 17.734375 3.457031 18.4375 3.457031 C 19.136719 3.457031 19.707031 4.027344 19.707031 4.734375 C 19.707031 5.4375 19.136719 6.011719 18.4375 6.011719 C 17.734375 6.011719 17.164062 5.4375 17.164062 4.734375 Z M 18.855469 7.082031 L 18.441406 7.628906 L 18.074219 7.082031 Z M 14.046875 6.523438 C 14.046875 4.054688 16.042969 2.046875 18.496094 2.046875 C 20.953125 2.046875 22.949219 4.054688 22.949219 6.523438 C 22.949219 7.574219 22.585938 8.542969 21.976562 9.308594 L 21.976562 7.851562 C 21.976562 6.945312 21.242188 6.207031 20.339844 6.207031 L 19.996094 6.207031 C 20.355469 5.820312 20.578125 5.304688 20.578125 4.734375 C 20.578125 3.546875 19.617188 2.582031 18.4375 2.582031 C 17.253906 2.582031 16.292969 3.546875 16.292969 4.734375 C 16.292969 5.304688 16.515625 5.820312 16.878906 6.207031 L 16.53125 6.207031 C 15.628906 6.207031 14.894531 6.945312 14.894531 7.851562 L 14.894531 9.144531 C 14.359375 8.40625 14.046875 7.5 14.046875 6.523438 Z M 18.496094 11.871094 C 19.292969 11.871094 20.046875 11.695312 20.722656 11.378906 L 21.769531 13.199219 L 20.125 14.824219 L 20.128906 14.828125 L 20.046875 14.910156 L 18.765625 15.1875 C 18.691406 15.203125 18.617188 15.21875 18.542969 15.234375 C 18.117188 15.324219 17.664062 15.421875 17.230469 15.566406 L 16.523438 15.222656 L 16.390625 15.089844 L 16.617188 14.859375 L 15.042969 13.273438 L 16.171875 11.332031 C 16.875 11.679688 17.664062 11.871094 18.496094 11.871094 Z M 12.140625 18.121094 L 11.804688 17.769531 L 15.058594 14.527344 L 15.386719 14.859375 Z M 11.90625 11.242188 L 14.136719 13.601562 L 14.441406 13.910156 L 11.199219 17.140625 L 8.660156 14.507812 Z M 13.449219 23.472656 C 13.449219 23.378906 13.484375 23.289062 13.554688 23.21875 L 13.894531 22.875 C 14.039062 23.066406 14.195312 23.25 14.363281 23.421875 L 14.058594 23.726562 C 13.917969 23.867188 13.691406 23.867188 13.554688 23.726562 C 13.484375 23.660156 13.449219 23.570312 13.449219 23.472656 Z M 14.585938 24.433594 L 14.671875 24.347656 L 14.976562 24.039062 L 15.605469 24.675781 L 15.214844 25.066406 C 15.132812 25.152344 15.019531 25.199219 14.902344 25.199219 C 14.78125 25.199219 14.671875 25.152344 14.585938 25.066406 C 14.414062 24.890625 14.414062 24.609375 14.585938 24.433594 Z M 15.859375 26.261719 C 15.78125 26.179688 15.734375 26.074219 15.734375 25.957031 C 15.734375 25.84375 15.78125 25.738281 15.859375 25.65625 L 16.222656 25.292969 L 16.824219 25.898438 L 16.5625 26.164062 L 16.464844 26.261719 C 16.382812 26.34375 16.277344 26.386719 16.160156 26.386719 C 16.046875 26.386719 15.941406 26.34375 15.859375 26.261719 Z M 17.175781 27.21875 C 17.058594 27.097656 17.058594 26.902344 17.175781 26.78125 L 17.441406 26.515625 L 17.875 26.953125 L 17.613281 27.21875 C 17.492188 27.335938 17.296875 27.339844 17.175781 27.21875 Z M 22.886719 25.664062 C 22.820312 25.734375 22.726562 25.773438 22.628906 25.773438 C 22.527344 25.773438 22.433594 25.734375 22.363281 25.664062 L 21.804688 25.101562 L 19.015625 22.296875 L 18.789062 22.066406 L 18.171875 22.6875 L 21.191406 25.71875 C 21.335938 25.867188 21.339844 26.101562 21.195312 26.246094 C 21.050781 26.390625 20.816406 26.390625 20.667969 26.242188 L 19.890625 25.460938 L 17.785156 23.34375 L 17.558594 23.117188 L 16.941406 23.734375 L 17.171875 23.964844 L 19.277344 26.078125 C 19.421875 26.226562 19.425781 26.460938 19.28125 26.605469 C 19.210938 26.675781 19.117188 26.71875 19.019531 26.714844 C 18.921875 26.714844 18.828125 26.671875 18.753906 26.601562 L 15.046875 22.875 C 14.371094 22.195312 13.890625 21.335938 13.660156 20.394531 L 13.269531 18.804688 L 12.980469 18.515625 L 15.773438 15.707031 L 16.011719 15.945312 L 16.222656 16.046875 C 16.070312 16.148438 15.929688 16.265625 15.796875 16.394531 L 14.207031 17.996094 C 13.742188 18.464844 13.753906 19.238281 14.238281 19.726562 C 14.484375 19.972656 14.808594 20.097656 15.125 20.097656 C 15.429688 20.097656 15.730469 19.984375 15.957031 19.753906 L 16.882812 18.828125 C 17.304688 18.984375 18.136719 19.21875 19.152344 19.121094 L 23.316406 23.289062 C 23.449219 23.425781 23.441406 23.652344 23.300781 23.796875 C 23.15625 23.9375 22.929688 23.949219 22.796875 23.8125 L 19.789062 20.792969 L 19.175781 21.410156 L 19.46875 21.707031 L 22.886719 25.140625 C 22.957031 25.210938 22.996094 25.304688 22.996094 25.402344 C 22.996094 25.503906 22.957031 25.59375 22.886719 25.664062 Z M 23.691406 19.015625 L 23.269531 20.632812 C 23.179688 20.980469 23.058594 21.316406 22.902344 21.640625 L 20.175781 18.910156 C 20.335938 18.855469 20.5 18.796875 20.667969 18.722656 L 20.320312 17.921875 C 18.566406 18.691406 16.992188 17.925781 16.976562 17.917969 L 16.695312 17.777344 L 15.34375 19.136719 C 15.214844 19.265625 14.996094 19.25 14.851562 19.105469 C 14.707031 18.960938 14.695312 18.742188 14.820312 18.613281 L 16.410156 17.015625 C 16.957031 16.46875 17.855469 16.277344 18.722656 16.089844 C 18.800781 16.074219 18.875 16.058594 18.949219 16.042969 L 20.480469 15.710938 L 20.742188 15.445312 L 23.992188 18.714844 Z M 24.609375 18.09375 L 21.359375 14.832031 L 25.003906 11.234375 L 28.25 14.496094 L 25.851562 16.84375 Z M 24.609375 18.09375 " fill-opacity="1" fill-rule="nonzero"/></g><g clip-path="url(#bfc3d0906b)"><path fill="#000000" d="M 0.929688 35.929688 L 0.167969 35.230469 L -0.273438 35.628906 L -0.433594 35.378906 C -0.191406 35.226562 -0.0351562 34.976562 -0.0351562 34.6875 C -0.0351562 34.230469 -0.441406 33.855469 -0.941406 33.855469 C -1.441406 33.855469 -1.847656 34.230469 -1.847656 34.6875 C -1.847656 34.96875 -1.695312 35.214844 -1.464844 35.367188 L -1.636719 35.636719 L -2.058594 35.226562 L -2.820312 35.929688 L -2.023438 36.6875 L -1.984375 36.648438 L -1.964844 36.667969 L -1.90625 36.878906 C -1.886719 36.960938 -1.851562 37.042969 -1.804688 37.117188 L -1.886719 37.191406 C -1.925781 37.226562 -1.949219 37.273438 -1.949219 37.324219 C -1.949219 37.375 -1.925781 37.425781 -1.886719 37.460938 C -1.855469 37.488281 -1.816406 37.507812 -1.773438 37.515625 C -1.777344 37.570312 -1.757812 37.625 -1.710938 37.667969 C -1.667969 37.707031 -1.613281 37.726562 -1.558594 37.730469 C -1.554688 37.777344 -1.53125 37.820312 -1.492188 37.855469 C -1.453125 37.894531 -1.398438 37.914062 -1.335938 37.914062 C -1.332031 37.914062 -1.328125 37.914062 -1.324219 37.914062 C -1.316406 37.945312 -1.296875 37.976562 -1.269531 38.003906 C -1.230469 38.039062 -1.179688 38.058594 -1.128906 38.058594 C -1.078125 38.058594 -1.027344 38.039062 -0.988281 38.003906 L -0.929688 37.953125 C -0.90625 37.960938 -0.878906 37.964844 -0.851562 37.964844 C -0.792969 37.964844 -0.742188 37.945312 -0.703125 37.910156 C -0.6875 37.894531 -0.675781 37.878906 -0.664062 37.863281 C -0.625 37.894531 -0.574219 37.910156 -0.523438 37.910156 C -0.472656 37.910156 -0.417969 37.890625 -0.375 37.851562 C -0.359375 37.835938 -0.34375 37.816406 -0.335938 37.796875 C -0.304688 37.8125 -0.273438 37.820312 -0.238281 37.820312 C -0.179688 37.820312 -0.128906 37.800781 -0.0898438 37.761719 C -0.0507812 37.726562 -0.0273438 37.675781 -0.0273438 37.625 C -0.0273438 37.582031 -0.0429688 37.539062 -0.0703125 37.507812 C -0.0507812 37.5 -0.0351562 37.484375 -0.0195312 37.472656 C 0.0625 37.394531 0.0664062 37.273438 -0.015625 37.199219 L -0.0820312 37.140625 C -0.0390625 37.070312 -0.0078125 36.996094 0.015625 36.917969 L 0.078125 36.703125 L 0.0976562 36.679688 L 0.152344 36.632812 L 0.171875 36.613281 L 0.578125 37.261719 L 0.707031 37.191406 L 0.28125 36.515625 L 0.414062 36.390625 Z M -1.300781 35.0625 L -1.300781 35.300781 C -1.339844 35.28125 -1.375 35.261719 -1.40625 35.238281 L -1.40625 34.894531 C -1.40625 34.828125 -1.347656 34.777344 -1.273438 34.777344 L -1.191406 34.777344 L -0.957031 35.09375 L -0.695312 34.777344 L -0.625 34.777344 C -0.554688 34.777344 -0.496094 34.828125 -0.496094 34.894531 L -0.496094 35.253906 C -0.523438 35.269531 -0.554688 35.289062 -0.585938 35.304688 L -0.585938 35.066406 L -0.734375 35.066406 L -0.734375 35.359375 C -0.800781 35.375 -0.867188 35.386719 -0.941406 35.386719 C -1.015625 35.386719 -1.085938 35.375 -1.15625 35.355469 L -1.15625 35.0625 Z M -1.167969 34.410156 C -1.167969 34.300781 -1.070312 34.210938 -0.949219 34.210938 C -0.832031 34.210938 -0.734375 34.300781 -0.734375 34.410156 C -0.734375 34.519531 -0.832031 34.609375 -0.949219 34.609375 C -1.070312 34.609375 -1.167969 34.519531 -1.167969 34.410156 Z M -0.878906 34.777344 L -0.949219 34.859375 L -1.011719 34.777344 Z M -1.699219 34.6875 C -1.699219 34.304688 -1.359375 33.992188 -0.941406 33.992188 C -0.523438 33.992188 -0.183594 34.304688 -0.183594 34.6875 C -0.183594 34.851562 -0.246094 35.003906 -0.347656 35.121094 L -0.347656 34.894531 C -0.347656 34.753906 -0.472656 34.640625 -0.625 34.640625 L -0.6875 34.640625 C -0.625 34.578125 -0.585938 34.5 -0.585938 34.410156 C -0.585938 34.226562 -0.75 34.074219 -0.949219 34.074219 C -1.152344 34.074219 -1.316406 34.226562 -1.316406 34.410156 C -1.316406 34.5 -1.277344 34.578125 -1.214844 34.640625 L -1.273438 34.640625 C -1.429688 34.640625 -1.554688 34.753906 -1.554688 34.894531 L -1.554688 35.097656 C -1.644531 34.980469 -1.699219 34.839844 -1.699219 34.6875 Z M -0.941406 35.519531 C -0.804688 35.519531 -0.675781 35.492188 -0.5625 35.445312 L -0.382812 35.726562 L -0.664062 35.980469 L -0.675781 35.992188 L -0.894531 36.035156 C -0.90625 36.039062 -0.917969 36.042969 -0.933594 36.042969 C -1.003906 36.058594 -1.082031 36.074219 -1.15625 36.09375 L -1.277344 36.042969 L -1.300781 36.019531 L -1.261719 35.984375 L -1.527344 35.738281 L -1.335938 35.4375 C -1.214844 35.492188 -1.082031 35.519531 -0.941406 35.519531 Z M -2.023438 36.492188 L -2.078125 36.4375 L -1.527344 35.933594 L -1.46875 35.984375 Z M -2.0625 35.421875 L -1.683594 35.789062 L -1.628906 35.835938 L -2.183594 36.339844 L -2.613281 35.929688 Z M -1.800781 37.324219 C -1.800781 37.3125 -1.792969 37.296875 -1.78125 37.285156 L -1.722656 37.234375 C -1.699219 37.261719 -1.671875 37.289062 -1.644531 37.316406 L -1.695312 37.363281 C -1.71875 37.386719 -1.757812 37.386719 -1.78125 37.363281 C -1.792969 37.355469 -1.800781 37.339844 -1.800781 37.324219 Z M -1.605469 37.476562 L -1.589844 37.460938 L -1.539062 37.414062 L -1.433594 37.511719 L -1.5 37.574219 C -1.511719 37.585938 -1.53125 37.59375 -1.550781 37.59375 C -1.574219 37.59375 -1.589844 37.585938 -1.605469 37.574219 C -1.636719 37.546875 -1.636719 37.5 -1.605469 37.476562 Z M -1.390625 37.757812 C -1.402344 37.746094 -1.410156 37.730469 -1.410156 37.710938 C -1.410156 37.695312 -1.402344 37.675781 -1.390625 37.664062 L -1.328125 37.609375 L -1.226562 37.703125 L -1.269531 37.742188 L -1.285156 37.757812 C -1.300781 37.773438 -1.316406 37.777344 -1.335938 37.777344 C -1.355469 37.777344 -1.375 37.773438 -1.390625 37.757812 Z M -1.164062 37.90625 C -1.183594 37.890625 -1.183594 37.859375 -1.164062 37.839844 L -1.121094 37.796875 L -1.046875 37.867188 L -1.089844 37.90625 C -1.113281 37.925781 -1.144531 37.925781 -1.164062 37.90625 Z M -0.191406 37.667969 C -0.207031 37.675781 -0.21875 37.683594 -0.238281 37.683594 C -0.253906 37.683594 -0.269531 37.675781 -0.28125 37.667969 L -0.378906 37.578125 L -0.851562 37.140625 L -0.890625 37.105469 L -0.996094 37.203125 L -0.480469 37.675781 C -0.457031 37.699219 -0.457031 37.734375 -0.480469 37.757812 C -0.503906 37.78125 -0.546875 37.777344 -0.570312 37.757812 L -0.703125 37.632812 L -1.0625 37.304688 L -1.101562 37.269531 L -1.203125 37.367188 L -1.164062 37.402344 L -0.808594 37.730469 C -0.78125 37.753906 -0.78125 37.789062 -0.808594 37.8125 C -0.820312 37.824219 -0.835938 37.828125 -0.851562 37.828125 C -0.867188 37.828125 -0.882812 37.824219 -0.898438 37.8125 L -1.527344 37.230469 C -1.644531 37.125 -1.722656 36.992188 -1.761719 36.847656 L -1.828125 36.597656 L -1.878906 36.554688 L -1.402344 36.117188 L -1.363281 36.15625 L -1.328125 36.171875 C -1.351562 36.1875 -1.378906 36.203125 -1.398438 36.222656 L -1.671875 36.472656 C -1.75 36.546875 -1.746094 36.667969 -1.664062 36.742188 C -1.625 36.78125 -1.566406 36.800781 -1.515625 36.800781 C -1.460938 36.800781 -1.410156 36.78125 -1.371094 36.746094 L -1.214844 36.601562 C -1.144531 36.625 -1 36.664062 -0.828125 36.648438 L -0.121094 37.296875 C -0.0976562 37.316406 -0.0976562 37.351562 -0.125 37.375 C -0.148438 37.398438 -0.1875 37.398438 -0.207031 37.378906 L -0.71875 36.910156 L -0.824219 37.003906 L -0.773438 37.050781 L -0.195312 37.585938 C -0.183594 37.59375 -0.175781 37.609375 -0.175781 37.625 C -0.175781 37.640625 -0.179688 37.65625 -0.191406 37.667969 Z M -0.0585938 36.632812 L -0.128906 36.882812 C -0.144531 36.9375 -0.164062 36.988281 -0.191406 37.039062 L -0.65625 36.617188 C -0.628906 36.605469 -0.597656 36.597656 -0.570312 36.585938 L -0.628906 36.460938 C -0.929688 36.582031 -1.195312 36.460938 -1.199219 36.460938 L -1.246094 36.4375 L -1.476562 36.652344 C -1.5 36.671875 -1.535156 36.667969 -1.558594 36.644531 C -1.585938 36.625 -1.585938 36.589844 -1.566406 36.570312 L -1.296875 36.320312 C -1.203125 36.234375 -1.050781 36.207031 -0.902344 36.175781 C -0.890625 36.175781 -0.875 36.171875 -0.863281 36.167969 L -0.601562 36.117188 L -0.558594 36.078125 L -0.00390625 36.585938 Z M 0.0976562 36.488281 L -0.453125 35.980469 L 0.167969 35.421875 L 0.71875 35.929688 L 0.3125 36.292969 Z M 0.0976562 36.488281 " fill-opacity="1" fill-rule="nonzero"/></g></svg>