<svg xmlns="http://www.w3.org/2000/svg" xmlns:xlink="http://www.w3.org/1999/xlink" width="50" zoomAndPan="magnify" viewBox="0 0 37.5 37.499999" height="50" preserveAspectRatio="xMidYMid meet" version="1.0"><defs><clipPath id="b90709eddc"><path d="M 0 35.246094 L 1.414062 35.246094 L 1.414062 37.007812 L 0 37.007812 Z M 0 35.246094 " clip-rule="nonzero"/></clipPath><clipPath id="fe12bf4bfd"><path d="M -2.238281 44.570312 C -2.9375 45.308594 -3.398438 46.230469 -3.527344 47.230469 L -7.046875 47.230469 C -7.175781 46.246094 -7.617188 45.320312 -8.308594 44.59375 C -9.039062 43.832031 -9.464844 42.792969 -9.414062 41.660156 C -9.3125 39.601562 -7.597656 37.933594 -5.480469 37.835938 C -3.109375 37.730469 -1.15625 39.570312 -1.15625 41.855469 C -1.15625 42.898438 -1.566406 43.851562 -2.238281 44.570312 Z M -5.285156 35.246094 C -5.53125 35.246094 -5.714844 35.46875 -5.664062 35.703125 L -5.371094 37.046875 C -5.359375 37.085938 -5.328125 37.117188 -5.285156 37.117188 C -5.246094 37.117188 -5.207031 37.085938 -5.203125 37.046875 L -4.910156 35.703125 C -4.859375 35.46875 -5.039062 35.246094 -5.285156 35.246094 Z M -0.992188 36.605469 C -1.191406 36.464844 -1.472656 36.539062 -1.570312 36.757812 L -2.144531 38.015625 C -2.164062 38.050781 -2.148438 38.09375 -2.117188 38.117188 C -2.085938 38.140625 -2.039062 38.140625 -2.007812 38.113281 L -0.957031 37.1875 C -0.78125 37.027344 -0.792969 36.746094 -0.992188 36.605469 Z M 1.660156 40.160156 C 1.582031 39.9375 1.316406 39.835938 1.101562 39.953125 L -0.121094 40.640625 C -0.160156 40.660156 -0.175781 40.703125 -0.160156 40.742188 C -0.148438 40.78125 -0.109375 40.804688 -0.0703125 40.800781 L 1.335938 40.65625 C 1.578125 40.628906 1.738281 40.390625 1.660156 40.160156 Z M -10.449219 40.640625 L -11.671875 39.953125 C -11.882812 39.835938 -12.15625 39.9375 -12.230469 40.160156 C -12.308594 40.386719 -12.144531 40.628906 -11.902344 40.652344 L -10.5 40.796875 C -10.457031 40.800781 -10.417969 40.777344 -10.40625 40.738281 C -10.398438 40.703125 -10.414062 40.660156 -10.449219 40.640625 Z M -9.003906 36.757812 C -9.101562 36.539062 -9.382812 36.464844 -9.582031 36.605469 C -9.777344 36.746094 -9.796875 37.027344 -9.609375 37.1875 L -8.5625 38.113281 C -8.53125 38.136719 -8.484375 38.140625 -8.449219 38.117188 C -8.417969 38.097656 -8.40625 38.054688 -8.421875 38.015625 Z M -9.003906 36.757812 " clip-rule="nonzero"/></clipPath><linearGradient x1="364.405263" gradientTransform="matrix(0.0336269, 0, 0, 0.0327419, -12.253803, 35.247489)" y1="182.964" x2="406.49964" gradientUnits="userSpaceOnUse" y2="182.964" id="74a35c22b5"><stop stop-opacity="1" stop-color="rgb(100%, 85.774231%, 2.97699%)" offset="0"/><stop stop-opacity="1" stop-color="rgb(100%, 85.879517%, 2.819824%)" offset="0.125"/><stop stop-opacity="1" stop-color="rgb(100%, 86.09314%, 2.507019%)" offset="0.25"/><stop stop-opacity="1" stop-color="rgb(100%, 86.306763%, 2.192688%)" offset="0.375"/><stop stop-opacity="1" stop-color="rgb(100%, 86.520386%, 1.879883%)" offset="0.5"/><stop stop-opacity="1" stop-color="rgb(100%, 86.734009%, 1.565552%)" offset="0.625"/><stop stop-opacity="1" stop-color="rgb(100%, 86.946106%, 1.252747%)" offset="0.75"/><stop stop-opacity="1" stop-color="rgb(100%, 87.159729%, 0.938416%)" offset="0.875"/><stop stop-opacity="1" stop-color="rgb(100%, 87.373352%, 0.624084%)" offset="1"/></linearGradient><clipPath id="ef19e44f81"><path d="M 3.292969 3.292969 L 33.640625 3.292969 L 33.640625 33.640625 L 3.292969 33.640625 Z M 3.292969 3.292969 " clip-rule="nonzero"/></clipPath></defs><g clip-path="url(#b90709eddc)"><g clip-path="url(#fe12bf4bfd)"><path fill="url(#74a35c22b5)" d="M 0 35.246094 L 0 37.007812 L 1.414062 37.007812 L 1.414062 35.246094 Z M 0 35.246094 " fill-rule="nonzero"/></g></g><g clip-path="url(#ef19e44f81)"><path fill="#404040" d="M 18.496094 3.289062 C 26.894531 3.289062 33.699219 10.097656 33.699219 18.496094 C 33.699219 26.890625 26.894531 33.699219 18.496094 33.699219 C 10.097656 33.699219 3.292969 26.890625 3.292969 18.496094 C 3.292969 10.097656 10.097656 3.289062 18.496094 3.289062 Z M 14.496094 16.375 C 14.472656 14.851562 17.957031 14.015625 19.539062 14.433594 C 23.542969 15.492188 17.746094 24.808594 18.75 26.1875 C 19.304688 26.953125 21.835938 26.347656 21.835938 27.046875 C 21.835938 27.742188 20.117188 29.554688 17.191406 28.949219 C 14.265625 28.347656 15.054688 26.300781 15.449219 24.652344 C 15.84375 23.003906 17.539062 18.449219 17.539062 17.660156 C 17.539062 15.183594 14.457031 17.023438 14.496094 16.371094 Z M 20.207031 7.917969 C 21.46875 7.917969 22.496094 8.941406 22.496094 10.203125 C 22.496094 11.46875 21.46875 12.492188 20.207031 12.492188 C 18.941406 12.492188 17.917969 11.46875 17.917969 10.203125 C 17.917969 8.941406 18.941406 7.917969 20.207031 7.917969 Z M 20.207031 7.917969 " fill-opacity="1" fill-rule="evenodd"/></g></svg>