<svg xmlns="http://www.w3.org/2000/svg" xmlns:xlink="http://www.w3.org/1999/xlink" width="45" zoomAndPan="magnify" viewBox="0 0 33.75 33.749999" height="45" preserveAspectRatio="xMidYMid meet" version="1.0"><defs><clipPath id="71cb9dabcb"><path d="M 1.40625 0 L 31.933594 0 L 31.933594 33 L 1.40625 33 Z M 1.40625 0 " clip-rule="nonzero"/></clipPath></defs><g clip-path="url(#71cb9dabcb)"><path fill="#fcb714" d="M 30.339844 7.675781 L 27.4375 7.675781 C 27.964844 6.738281 27.605469 4.148438 27.125 2.707031 C 25.550781 -1.929688 19.339844 3.109375 18.265625 4.066406 C 17.800781 3.691406 16.652344 3.871094 16.101562 3.828125 C 15.808594 3.832031 15.535156 3.910156 15.285156 4.066406 C 14.21875 3.117188 8 -1.925781 6.425781 2.699219 C 5.945312 4.140625 5.582031 6.734375 6.113281 7.675781 L 3.207031 7.675781 C 2.980469 7.675781 2.761719 7.71875 2.554688 7.808594 C 2.34375 7.894531 2.160156 8.019531 1.996094 8.179688 C 1.835938 8.339844 1.714844 8.523438 1.625 8.734375 C 1.539062 8.945312 1.496094 9.164062 1.496094 9.390625 L 1.496094 15.429688 C 1.496094 15.585938 1.550781 15.722656 1.664062 15.832031 C 1.773438 15.945312 1.910156 16 2.066406 16 L 3.1875 16 L 3.1875 31 C 3.1875 31.226562 3.230469 31.445312 3.316406 31.652344 C 3.402344 31.863281 3.527344 32.046875 3.6875 32.210938 C 3.847656 32.371094 4.035156 32.492188 4.242188 32.582031 C 4.453125 32.667969 4.671875 32.710938 4.898438 32.710938 C 7.941406 32.710938 28.648438 32.710938 28.648438 32.710938 C 28.875 32.710938 29.09375 32.667969 29.304688 32.582031 C 29.515625 32.492188 29.699219 32.371094 29.859375 32.210938 C 30.019531 32.046875 30.144531 31.863281 30.230469 31.652344 C 30.316406 31.445312 30.363281 31.226562 30.363281 31 L 30.363281 16 L 31.480469 16 C 31.640625 16 31.773438 15.945312 31.886719 15.832031 C 31.996094 15.722656 32.050781 15.585938 32.050781 15.429688 L 32.050781 9.390625 C 32.050781 9.164062 32.007812 8.945312 31.921875 8.734375 C 31.835938 8.523438 31.710938 8.339844 31.550781 8.179688 C 31.390625 8.019531 31.203125 7.894531 30.996094 7.808594 C 30.785156 7.71875 30.566406 7.675781 30.339844 7.675781 Z M 19.769531 7.675781 C 21.242188 6.324219 24.792969 5.539062 26.515625 5.292969 C 26.632812 6.269531 26.617188 7.476562 25.882812 7.675781 Z M 19.199219 14.855469 C 19.15625 14.851562 14.390625 14.859375 14.347656 14.855469 L 14.347656 8.820312 C 14.347656 8.820312 18.734375 8.820312 19.199219 8.820312 Z M 24.085938 1.9375 C 25.613281 1.554688 26.121094 2.941406 26.316406 4.171875 C 24.839844 4.386719 21.128906 5.074219 19.035156 6.769531 C 19.066406 6.167969 19.042969 5.570312 18.960938 4.972656 C 20.46875 3.621094 22.175781 2.609375 24.085938 1.9375 Z M 16.101562 4.972656 L 17.445312 4.972656 C 17.566406 4.972656 17.671875 5.015625 17.761719 5.101562 C 17.847656 5.191406 17.890625 5.296875 17.890625 5.417969 L 17.890625 7.675781 L 15.65625 7.675781 L 15.65625 5.417969 C 15.65625 5.296875 15.699219 5.191406 15.789062 5.101562 C 15.875 5.015625 15.980469 4.972656 16.101562 4.972656 Z M 7.523438 3.019531 C 7.578125 2.816406 7.671875 2.636719 7.800781 2.472656 C 7.933594 2.308594 8.085938 2.175781 8.269531 2.078125 C 8.453125 1.976562 8.644531 1.914062 8.851562 1.886719 C 9.058594 1.863281 9.265625 1.878906 9.464844 1.9375 C 11.375 2.609375 13.082031 3.621094 14.585938 4.972656 C 14.507812 5.570312 14.484375 6.167969 14.515625 6.769531 C 12.417969 5.074219 8.707031 4.386719 7.234375 4.171875 C 7.316406 3.792969 7.40625 3.40625 7.523438 3.019531 Z M 7.035156 5.292969 C 8.820312 5.546875 12.125 6.28125 13.820312 7.675781 L 7.667969 7.675781 C 6.933594 7.476562 6.917969 6.269531 7.035156 5.292969 Z M 2.636719 9.390625 C 2.636719 9.230469 2.695312 9.097656 2.804688 8.984375 C 2.917969 8.875 3.050781 8.820312 3.207031 8.820312 L 13.207031 8.820312 L 13.207031 14.855469 C 12.523438 14.855469 3.046875 14.859375 2.636719 14.855469 Z M 4.328125 31 L 4.328125 16 L 13.96875 16 L 13.96875 31.570312 L 4.898438 31.570312 C 4.742188 31.570312 4.605469 31.511719 4.496094 31.402344 C 4.382812 31.289062 4.328125 31.15625 4.328125 31 Z M 15.113281 31.570312 L 15.113281 16 L 18.4375 16 L 18.4375 31.570312 Z M 29.21875 31 C 29.21875 31.15625 29.164062 31.289062 29.050781 31.402344 C 28.941406 31.511719 28.804688 31.570312 28.648438 31.570312 L 19.578125 31.570312 L 19.578125 16 L 29.21875 16 Z M 30.910156 14.855469 C 30.546875 14.859375 20.980469 14.855469 20.339844 14.855469 L 20.339844 8.820312 L 30.339844 8.820312 C 30.496094 8.820312 30.632812 8.875 30.742188 8.984375 C 30.855469 9.097656 30.910156 9.230469 30.910156 9.390625 Z M 30.910156 14.855469 " fill-opacity="1" fill-rule="nonzero"/></g></svg>