<svg xmlns="http://www.w3.org/2000/svg" xmlns:xlink="http://www.w3.org/1999/xlink" width="45" zoomAndPan="magnify" viewBox="0 0 33.75 33.749999" height="45" preserveAspectRatio="xMidYMid meet" version="1.0"><defs><clipPath id="880f5fc623"><path d="M 13 0.78125 L 19 0.78125 L 19 7 L 13 7 Z M 13 0.78125 " clip-rule="nonzero"/></clipPath><clipPath id="f54941fcca"><path d="M 27 13 L 32.792969 13 L 32.792969 19 L 27 19 Z M 27 13 " clip-rule="nonzero"/></clipPath><clipPath id="a6807213c3"><path d="M 14 27 L 20 27 L 20 32.792969 L 14 32.792969 Z M 14 27 " clip-rule="nonzero"/></clipPath><clipPath id="20f6dc6b4e"><path d="M 0.78125 14 L 7 14 L 7 20 L 0.78125 20 Z M 0.78125 14 " clip-rule="nonzero"/></clipPath></defs><g clip-path="url(#880f5fc623)"><path fill="#404040" d="M 18.992188 2.902344 C 19 3.015625 18.9375 3.097656 18.851562 3.167969 C 18.507812 3.449219 18.167969 3.738281 17.820312 4.015625 C 17.726562 4.089844 17.707031 4.164062 17.738281 4.277344 C 17.847656 4.699219 17.945312 5.125 18.050781 5.546875 C 18.089844 5.707031 18.054688 5.84375 17.921875 5.945312 C 17.804688 6.035156 17.648438 6.03125 17.503906 5.9375 C 17.117188 5.695312 16.734375 5.457031 16.355469 5.210938 C 16.273438 5.15625 16.214844 5.160156 16.132812 5.210938 C 15.769531 5.445312 15.398438 5.671875 15.03125 5.898438 C 14.925781 5.964844 14.816406 6 14.695312 5.972656 C 14.507812 5.929688 14.402344 5.742188 14.449219 5.550781 C 14.566406 5.089844 14.679688 4.632812 14.800781 4.171875 C 14.820312 4.101562 14.804688 4.0625 14.753906 4.019531 C 14.425781 3.746094 14.105469 3.46875 13.777344 3.195312 C 13.65625 3.097656 13.546875 2.992188 13.5625 2.816406 C 13.574219 2.640625 13.703125 2.503906 13.878906 2.496094 C 14.355469 2.460938 14.835938 2.429688 15.316406 2.402344 C 15.390625 2.394531 15.414062 2.355469 15.4375 2.296875 C 15.597656 1.902344 15.761719 1.503906 15.925781 1.109375 C 15.941406 1.074219 15.953125 1.035156 15.96875 1 C 16.039062 0.863281 16.144531 0.789062 16.300781 0.792969 C 16.453125 0.792969 16.558594 0.871094 16.617188 1.011719 C 16.785156 1.441406 16.957031 1.867188 17.125 2.296875 C 17.160156 2.382812 17.199219 2.421875 17.300781 2.429688 C 17.71875 2.449219 18.140625 2.484375 18.558594 2.519531 C 18.621094 2.523438 18.6875 2.53125 18.746094 2.546875 C 18.898438 2.589844 18.992188 2.726562 18.992188 2.902344 " fill-opacity="1" fill-rule="nonzero"/></g><path fill="#404040" d="M 28.136719 8.539062 C 28.0625 8.625 27.960938 8.636719 27.851562 8.628906 C 27.40625 8.585938 26.964844 8.546875 26.523438 8.5 C 26.402344 8.488281 26.335938 8.523438 26.277344 8.625 C 26.058594 9 25.828125 9.371094 25.605469 9.742188 C 25.519531 9.886719 25.394531 9.953125 25.230469 9.933594 C 25.085938 9.914062 24.976562 9.800781 24.9375 9.632812 C 24.835938 9.191406 24.734375 8.75 24.640625 8.308594 C 24.617188 8.210938 24.578125 8.171875 24.484375 8.152344 C 24.058594 8.058594 23.640625 7.957031 23.21875 7.859375 C 23.097656 7.832031 22.992188 7.78125 22.929688 7.671875 C 22.828125 7.511719 22.882812 7.304688 23.054688 7.203125 C 23.460938 6.957031 23.867188 6.710938 24.277344 6.472656 C 24.339844 6.4375 24.355469 6.398438 24.351562 6.332031 C 24.3125 5.910156 24.277344 5.484375 24.242188 5.058594 C 24.226562 4.902344 24.222656 4.753906 24.359375 4.636719 C 24.488281 4.523438 24.679688 4.519531 24.808594 4.632812 C 25.171875 4.949219 25.535156 5.265625 25.890625 5.582031 C 25.949219 5.632812 25.992188 5.621094 26.050781 5.597656 C 26.445312 5.429688 26.84375 5.265625 27.238281 5.101562 C 27.273438 5.085938 27.308594 5.070312 27.347656 5.058594 C 27.488281 5.011719 27.617188 5.035156 27.726562 5.140625 C 27.835938 5.253906 27.851562 5.382812 27.792969 5.523438 C 27.613281 5.945312 27.429688 6.371094 27.246094 6.789062 C 27.210938 6.875 27.207031 6.929688 27.277344 7.007812 C 27.558594 7.320312 27.828125 7.640625 28.101562 7.960938 C 28.144531 8.011719 28.183594 8.058594 28.214844 8.113281 C 28.292969 8.253906 28.261719 8.414062 28.136719 8.539062 " fill-opacity="1" fill-rule="nonzero"/><g clip-path="url(#f54941fcca)"><path fill="#404040" d="M 30.617188 18.992188 C 30.507812 19 30.425781 18.9375 30.355469 18.851562 C 30.070312 18.507812 29.78125 18.167969 29.503906 17.820312 C 29.429688 17.726562 29.359375 17.707031 29.242188 17.738281 C 28.824219 17.847656 28.398438 17.945312 27.976562 18.050781 C 27.8125 18.089844 27.679688 18.054688 27.574219 17.921875 C 27.488281 17.804688 27.492188 17.648438 27.582031 17.503906 C 27.824219 17.117188 28.0625 16.734375 28.308594 16.355469 C 28.363281 16.273438 28.359375 16.214844 28.308594 16.132812 C 28.074219 15.769531 27.851562 15.398438 27.621094 15.03125 C 27.554688 14.925781 27.519531 14.816406 27.546875 14.695312 C 27.59375 14.507812 27.777344 14.402344 27.96875 14.449219 C 28.429688 14.566406 28.890625 14.679688 29.347656 14.800781 C 29.417969 14.820312 29.457031 14.804688 29.5 14.753906 C 29.773438 14.425781 30.050781 14.105469 30.324219 13.777344 C 30.425781 13.65625 30.527344 13.546875 30.707031 13.5625 C 30.878906 13.574219 31.015625 13.703125 31.027344 13.878906 C 31.058594 14.355469 31.09375 14.835938 31.121094 15.316406 C 31.125 15.390625 31.164062 15.414062 31.222656 15.4375 C 31.621094 15.597656 32.015625 15.761719 32.414062 15.925781 C 32.449219 15.941406 32.484375 15.953125 32.519531 15.96875 C 32.65625 16.039062 32.730469 16.144531 32.730469 16.300781 C 32.726562 16.453125 32.648438 16.558594 32.507812 16.617188 C 32.082031 16.785156 31.652344 16.957031 31.226562 17.125 C 31.140625 17.160156 31.097656 17.199219 31.09375 17.300781 C 31.070312 17.71875 31.035156 18.140625 31.003906 18.558594 C 30.996094 18.621094 30.988281 18.6875 30.972656 18.746094 C 30.929688 18.898438 30.792969 18.992188 30.617188 18.992188 " fill-opacity="1" fill-rule="nonzero"/></g><path fill="#404040" d="M 24.980469 28.136719 C 24.898438 28.0625 24.882812 27.960938 24.894531 27.851562 C 24.9375 27.40625 24.972656 26.964844 25.019531 26.523438 C 25.035156 26.402344 25 26.335938 24.898438 26.277344 C 24.519531 26.058594 24.152344 25.828125 23.777344 25.605469 C 23.636719 25.519531 23.566406 25.394531 23.585938 25.230469 C 23.605469 25.085938 23.71875 24.976562 23.890625 24.9375 C 24.328125 24.835938 24.769531 24.734375 25.214844 24.640625 C 25.308594 24.617188 25.347656 24.578125 25.367188 24.484375 C 25.460938 24.058594 25.566406 23.640625 25.660156 23.21875 C 25.691406 23.097656 25.742188 22.992188 25.847656 22.929688 C 26.011719 22.828125 26.21875 22.882812 26.320312 23.054688 C 26.5625 23.460938 26.808594 23.867188 27.046875 24.277344 C 27.082031 24.339844 27.121094 24.355469 27.1875 24.351562 C 27.613281 24.3125 28.035156 24.277344 28.460938 24.242188 C 28.617188 24.226562 28.765625 24.222656 28.882812 24.359375 C 28.996094 24.488281 29.003906 24.679688 28.886719 24.808594 C 28.570312 25.171875 28.257812 25.535156 27.9375 25.890625 C 27.886719 25.949219 27.898438 25.992188 27.921875 26.050781 C 28.089844 26.445312 28.253906 26.839844 28.417969 27.238281 C 28.433594 27.273438 28.453125 27.308594 28.464844 27.347656 C 28.511719 27.488281 28.488281 27.617188 28.378906 27.726562 C 28.265625 27.832031 28.136719 27.851562 27.996094 27.792969 C 27.574219 27.613281 27.152344 27.429688 26.730469 27.246094 C 26.644531 27.210938 26.589844 27.207031 26.511719 27.277344 C 26.199219 27.558594 25.878906 27.828125 25.558594 28.101562 C 25.511719 28.144531 25.460938 28.183594 25.40625 28.214844 C 25.269531 28.292969 25.105469 28.261719 24.980469 28.136719 " fill-opacity="1" fill-rule="nonzero"/><g clip-path="url(#a6807213c3)"><path fill="#404040" d="M 14.53125 30.617188 C 14.519531 30.507812 14.582031 30.425781 14.667969 30.355469 C 15.011719 30.070312 15.351562 29.78125 15.699219 29.503906 C 15.792969 29.429688 15.8125 29.359375 15.785156 29.242188 C 15.671875 28.824219 15.574219 28.398438 15.46875 27.976562 C 15.429688 27.8125 15.46875 27.679688 15.601562 27.574219 C 15.714844 27.488281 15.871094 27.492188 16.019531 27.582031 C 16.402344 27.824219 16.785156 28.0625 17.167969 28.308594 C 17.25 28.363281 17.304688 28.359375 17.386719 28.308594 C 17.75 28.074219 18.121094 27.851562 18.488281 27.621094 C 18.59375 27.554688 18.703125 27.519531 18.824219 27.546875 C 19.011719 27.59375 19.117188 27.777344 19.070312 27.96875 C 18.953125 28.429688 18.839844 28.890625 18.71875 29.347656 C 18.703125 29.417969 18.714844 29.457031 18.765625 29.5 C 19.09375 29.773438 19.417969 30.050781 19.742188 30.324219 C 19.863281 30.425781 19.972656 30.527344 19.960938 30.707031 C 19.949219 30.878906 19.816406 31.015625 19.644531 31.027344 C 19.164062 31.058594 18.6875 31.09375 18.207031 31.121094 C 18.132812 31.125 18.109375 31.164062 18.085938 31.222656 C 17.921875 31.621094 17.757812 32.015625 17.597656 32.414062 C 17.582031 32.449219 17.566406 32.484375 17.550781 32.519531 C 17.480469 32.65625 17.375 32.730469 17.222656 32.730469 C 17.066406 32.726562 16.960938 32.648438 16.90625 32.507812 C 16.734375 32.082031 16.5625 31.652344 16.394531 31.226562 C 16.363281 31.140625 16.324219 31.097656 16.21875 31.09375 C 15.800781 31.070312 15.378906 31.035156 14.960938 31.003906 C 14.898438 30.996094 14.835938 30.988281 14.773438 30.972656 C 14.621094 30.929688 14.527344 30.792969 14.53125 30.617188 " fill-opacity="1" fill-rule="nonzero"/></g><path fill="#404040" d="M 5.382812 24.980469 C 5.457031 24.898438 5.558594 24.882812 5.671875 24.894531 C 6.113281 24.9375 6.558594 24.972656 7 25.019531 C 7.117188 25.035156 7.183594 25 7.242188 24.898438 C 7.464844 24.519531 7.691406 24.152344 7.917969 23.777344 C 8.003906 23.636719 8.125 23.566406 8.292969 23.585938 C 8.4375 23.605469 8.542969 23.71875 8.582031 23.890625 C 8.683594 24.328125 8.785156 24.769531 8.882812 25.214844 C 8.902344 25.308594 8.945312 25.347656 9.039062 25.367188 C 9.460938 25.460938 9.882812 25.566406 10.304688 25.660156 C 10.425781 25.691406 10.527344 25.742188 10.59375 25.847656 C 10.691406 26.011719 10.636719 26.21875 10.46875 26.320312 C 10.0625 26.5625 9.652344 26.808594 9.242188 27.046875 C 9.183594 27.082031 9.164062 27.121094 9.167969 27.1875 C 9.207031 27.613281 9.242188 28.035156 9.277344 28.460938 C 9.292969 28.617188 9.296875 28.765625 9.160156 28.882812 C 9.03125 28.996094 8.839844 29.003906 8.710938 28.886719 C 8.351562 28.570312 7.988281 28.257812 7.628906 27.9375 C 7.570312 27.886719 7.527344 27.898438 7.46875 27.921875 C 7.074219 28.089844 6.679688 28.253906 6.285156 28.417969 C 6.246094 28.433594 6.210938 28.453125 6.175781 28.460938 C 6.03125 28.511719 5.902344 28.488281 5.792969 28.378906 C 5.6875 28.265625 5.667969 28.136719 5.726562 27.996094 C 5.910156 27.574219 6.089844 27.152344 6.273438 26.730469 C 6.3125 26.644531 6.3125 26.589844 6.242188 26.511719 C 5.960938 26.199219 5.691406 25.878906 5.417969 25.558594 C 5.375 25.511719 5.335938 25.460938 5.304688 25.40625 C 5.230469 25.269531 5.257812 25.105469 5.382812 24.980469 " fill-opacity="1" fill-rule="nonzero"/><g clip-path="url(#20f6dc6b4e)"><path fill="#404040" d="M 2.902344 14.53125 C 3.015625 14.519531 3.097656 14.582031 3.167969 14.667969 C 3.449219 15.011719 3.738281 15.351562 4.015625 15.699219 C 4.09375 15.792969 4.160156 15.8125 4.277344 15.785156 C 4.699219 15.671875 5.125 15.574219 5.546875 15.46875 C 5.707031 15.429688 5.84375 15.46875 5.945312 15.601562 C 6.035156 15.714844 6.03125 15.871094 5.9375 16.019531 C 5.695312 16.402344 5.457031 16.785156 5.210938 17.167969 C 5.15625 17.25 5.160156 17.304688 5.210938 17.386719 C 5.445312 17.75 5.671875 18.121094 5.898438 18.488281 C 5.964844 18.59375 6 18.703125 5.972656 18.824219 C 5.929688 19.011719 5.742188 19.117188 5.550781 19.070312 C 5.089844 18.953125 4.632812 18.839844 4.171875 18.71875 C 4.101562 18.703125 4.0625 18.714844 4.019531 18.765625 C 3.746094 19.09375 3.46875 19.417969 3.195312 19.742188 C 3.097656 19.863281 2.992188 19.972656 2.816406 19.960938 C 2.640625 19.949219 2.503906 19.816406 2.496094 19.644531 C 2.460938 19.164062 2.429688 18.6875 2.402344 18.207031 C 2.394531 18.132812 2.355469 18.109375 2.296875 18.085938 C 1.902344 17.921875 1.503906 17.757812 1.109375 17.597656 C 1.074219 17.582031 1.035156 17.566406 1 17.550781 C 0.867188 17.480469 0.789062 17.375 0.792969 17.222656 C 0.792969 17.066406 0.871094 16.960938 1.011719 16.90625 C 1.441406 16.734375 1.867188 16.5625 2.296875 16.394531 C 2.382812 16.363281 2.421875 16.324219 2.429688 16.21875 C 2.449219 15.800781 2.484375 15.378906 2.519531 14.960938 C 2.523438 14.898438 2.53125 14.835938 2.546875 14.773438 C 2.589844 14.621094 2.726562 14.527344 2.902344 14.53125 " fill-opacity="1" fill-rule="nonzero"/></g><path fill="#404040" d="M 8.539062 5.382812 C 8.625 5.457031 8.636719 5.558594 8.628906 5.671875 C 8.585938 6.113281 8.546875 6.558594 8.5 7 C 8.488281 7.117188 8.523438 7.183594 8.625 7.242188 C 9 7.460938 9.371094 7.691406 9.742188 7.917969 C 9.886719 8.003906 9.953125 8.125 9.933594 8.292969 C 9.914062 8.4375 9.800781 8.542969 9.632812 8.582031 C 9.191406 8.683594 8.75 8.785156 8.308594 8.878906 C 8.210938 8.902344 8.171875 8.945312 8.152344 9.039062 C 8.058594 9.460938 7.957031 9.882812 7.859375 10.304688 C 7.832031 10.425781 7.777344 10.527344 7.671875 10.59375 C 7.511719 10.695312 7.304688 10.636719 7.203125 10.46875 C 6.957031 10.0625 6.714844 9.652344 6.472656 9.242188 C 6.4375 9.183594 6.398438 9.164062 6.332031 9.167969 C 5.910156 9.207031 5.484375 9.242188 5.058594 9.277344 C 4.902344 9.292969 4.753906 9.296875 4.636719 9.164062 C 4.523438 9.03125 4.519531 8.839844 4.632812 8.710938 C 4.949219 8.351562 5.265625 7.988281 5.585938 7.628906 C 5.632812 7.574219 5.621094 7.527344 5.597656 7.46875 C 5.429688 7.074219 5.265625 6.679688 5.101562 6.285156 C 5.085938 6.25 5.070312 6.210938 5.058594 6.175781 C 5.011719 6.03125 5.035156 5.902344 5.140625 5.796875 C 5.253906 5.6875 5.382812 5.667969 5.523438 5.726562 C 5.945312 5.910156 6.371094 6.089844 6.789062 6.273438 C 6.875 6.3125 6.929688 6.3125 7.007812 6.242188 C 7.320312 5.960938 7.640625 5.691406 7.960938 5.417969 C 8.011719 5.375 8.058594 5.335938 8.113281 5.304688 C 8.253906 5.230469 8.414062 5.257812 8.539062 5.382812 " fill-opacity="1" fill-rule="nonzero"/><path fill="#404040" d="M 23.726562 13.554688 L 23.667969 13.511719 C 23.648438 13.492188 23.636719 13.488281 23.625 13.480469 L 23.589844 13.457031 C 23.578125 13.453125 23.570312 13.445312 23.5625 13.441406 L 23.484375 13.40625 C 23.449219 13.390625 23.414062 13.375 23.371094 13.359375 C 22.746094 13.160156 22.070312 13.246094 21.429688 13.308594 C 21.414062 13.3125 21.386719 13.3125 21.347656 13.316406 C 21.292969 13.316406 21.214844 13.316406 21.125 13.324219 C 21.089844 13.324219 21.050781 13.324219 21.007812 13.324219 C 20.976562 13.324219 20.945312 13.324219 20.910156 13.328125 C 20.777344 13.328125 20.628906 13.335938 20.496094 13.34375 C 20.464844 13.34375 20.433594 13.34375 20.402344 13.347656 C 20.382812 13.347656 20.359375 13.351562 20.339844 13.351562 C 20.296875 13.355469 20.257812 13.359375 20.21875 13.359375 C 20.132812 13.367188 20.058594 13.378906 20 13.386719 C 19.980469 13.390625 19.960938 13.394531 19.945312 13.398438 C 19.941406 13.398438 19.941406 13.398438 19.9375 13.398438 C 19.9375 13.398438 19.933594 13.402344 19.929688 13.402344 C 19.910156 13.402344 19.898438 13.386719 19.898438 13.367188 C 19.898438 13.367188 19.898438 13.359375 19.898438 13.359375 L 20.089844 12.71875 C 20.203125 12.335938 20.316406 11.941406 20.4375 11.558594 C 20.617188 11 20.671875 10.554688 20.617188 10.113281 C 20.554688 9.554688 20.234375 9.050781 19.761719 8.753906 C 19.492188 8.582031 19.1875 8.496094 18.882812 8.496094 C 18.859375 8.496094 18.835938 8.496094 18.8125 8.496094 C 18.519531 8.511719 18.339844 8.675781 18.3125 8.964844 C 18.277344 9.335938 18.234375 9.675781 18.1875 9.992188 C 18.097656 10.558594 17.945312 11.027344 17.714844 11.433594 C 17.585938 11.660156 17.4375 11.867188 17.257812 12.058594 C 17.015625 12.3125 16.757812 12.59375 16.472656 12.914062 L 15.832031 13.648438 C 15.679688 13.820312 15.523438 13.992188 15.359375 14.148438 C 15.328125 14.183594 15.285156 14.222656 15.234375 14.265625 C 15.125 14.363281 15 14.441406 14.863281 14.507812 C 14.78125 14.539062 14.683594 14.570312 14.539062 14.613281 C 13.992188 14.765625 13.679688 14.917969 13.65625 15.246094 C 13.644531 15.429688 13.636719 15.585938 13.632812 15.734375 L 13.632812 15.835938 C 13.628906 15.976562 13.625 16.113281 13.625 16.25 L 13.625 21.335938 L 14.476562 21.332031 L 14.519531 21.339844 C 14.8125 21.386719 15.117188 21.4375 15.507812 21.503906 L 15.679688 21.53125 C 16.445312 21.660156 17.152344 21.777344 17.859375 21.859375 C 19.597656 22.0625 21.699219 22.570312 22.964844 20.996094 C 23.484375 20.351562 23.53125 19.4375 23.652344 18.652344 C 23.847656 17.367188 24.0625 16.082031 24.242188 14.792969 C 24.308594 14.335938 24.101562 13.839844 23.726562 13.554688 " fill-opacity="1" fill-rule="nonzero"/><path fill="#404040" d="M 12.125 13.941406 L 9.8125 13.941406 C 9.511719 13.941406 9.265625 14.183594 9.265625 14.488281 L 9.265625 21.347656 C 9.265625 21.652344 9.511719 21.894531 9.8125 21.894531 L 12.125 21.894531 C 12.425781 21.894531 12.667969 21.652344 12.667969 21.347656 L 12.667969 14.488281 C 12.667969 14.183594 12.425781 13.941406 12.125 13.941406 " fill-opacity="1" fill-rule="nonzero"/></svg>