<svg xmlns="http://www.w3.org/2000/svg" xmlns:xlink="http://www.w3.org/1999/xlink" width="50" zoomAndPan="magnify" viewBox="0 0 37.5 37.499999" height="50" preserveAspectRatio="xMidYMid meet" version="1.0"><defs><clipPath id="130df24885"><path d="M 0 35.246094 L 1.414062 35.246094 L 1.414062 37.007812 L 0 37.007812 Z M 0 35.246094 " clip-rule="nonzero"/></clipPath><clipPath id="a5f954d917"><path d="M -2.238281 44.570312 C -2.9375 45.308594 -3.398438 46.230469 -3.527344 47.230469 L -7.046875 47.230469 C -7.175781 46.246094 -7.617188 45.320312 -8.308594 44.59375 C -9.039062 43.832031 -9.464844 42.792969 -9.414062 41.660156 C -9.3125 39.601562 -7.597656 37.933594 -5.480469 37.835938 C -3.109375 37.730469 -1.15625 39.570312 -1.15625 41.855469 C -1.15625 42.898438 -1.566406 43.851562 -2.238281 44.570312 Z M -5.285156 35.246094 C -5.53125 35.246094 -5.714844 35.46875 -5.664062 35.703125 L -5.371094 37.046875 C -5.359375 37.085938 -5.328125 37.117188 -5.285156 37.117188 C -5.246094 37.117188 -5.207031 37.085938 -5.203125 37.046875 L -4.910156 35.703125 C -4.859375 35.46875 -5.039062 35.246094 -5.285156 35.246094 Z M -0.992188 36.605469 C -1.191406 36.464844 -1.472656 36.539062 -1.570312 36.757812 L -2.144531 38.015625 C -2.164062 38.050781 -2.148438 38.09375 -2.117188 38.117188 C -2.085938 38.140625 -2.039062 38.140625 -2.007812 38.113281 L -0.957031 37.1875 C -0.78125 37.027344 -0.792969 36.746094 -0.992188 36.605469 Z M 1.660156 40.160156 C 1.582031 39.9375 1.316406 39.835938 1.101562 39.953125 L -0.121094 40.640625 C -0.160156 40.660156 -0.175781 40.703125 -0.160156 40.742188 C -0.148438 40.78125 -0.109375 40.804688 -0.0703125 40.800781 L 1.335938 40.65625 C 1.578125 40.628906 1.738281 40.390625 1.660156 40.160156 Z M -10.449219 40.640625 L -11.671875 39.953125 C -11.882812 39.835938 -12.15625 39.9375 -12.230469 40.160156 C -12.308594 40.386719 -12.144531 40.628906 -11.902344 40.652344 L -10.5 40.796875 C -10.457031 40.800781 -10.417969 40.777344 -10.40625 40.738281 C -10.398438 40.703125 -10.414062 40.660156 -10.449219 40.640625 Z M -9.003906 36.757812 C -9.101562 36.539062 -9.382812 36.464844 -9.582031 36.605469 C -9.777344 36.746094 -9.796875 37.027344 -9.609375 37.1875 L -8.5625 38.113281 C -8.53125 38.136719 -8.484375 38.140625 -8.449219 38.117188 C -8.417969 38.097656 -8.40625 38.054688 -8.421875 38.015625 Z M -9.003906 36.757812 " clip-rule="nonzero"/></clipPath><linearGradient x1="364.405263" gradientTransform="matrix(0.0336269, 0, 0, 0.0327419, -12.253803, 35.247489)" y1="182.964" x2="406.49964" gradientUnits="userSpaceOnUse" y2="182.964" id="330fa3788a"><stop stop-opacity="1" stop-color="rgb(100%, 85.774231%, 2.97699%)" offset="0"/><stop stop-opacity="1" stop-color="rgb(100%, 85.879517%, 2.819824%)" offset="0.125"/><stop stop-opacity="1" stop-color="rgb(100%, 86.09314%, 2.507019%)" offset="0.25"/><stop stop-opacity="1" stop-color="rgb(100%, 86.306763%, 2.192688%)" offset="0.375"/><stop stop-opacity="1" stop-color="rgb(100%, 86.520386%, 1.879883%)" offset="0.5"/><stop stop-opacity="1" stop-color="rgb(100%, 86.734009%, 1.565552%)" offset="0.625"/><stop stop-opacity="1" stop-color="rgb(100%, 86.946106%, 1.252747%)" offset="0.75"/><stop stop-opacity="1" stop-color="rgb(100%, 87.159729%, 0.938416%)" offset="0.875"/><stop stop-opacity="1" stop-color="rgb(100%, 87.373352%, 0.624084%)" offset="1"/></linearGradient><clipPath id="d569e05167"><path d="M 4 2.683594 L 33 2.683594 L 33 7 L 4 7 Z M 4 2.683594 " clip-rule="nonzero"/></clipPath><clipPath id="68e16d8f10"><path d="M 2.046875 10 L 7 10 L 7 18 L 2.046875 18 Z M 2.046875 10 " clip-rule="nonzero"/></clipPath><clipPath id="c43bce1eca"><path d="M 30 10 L 34.609375 10 L 34.609375 18 L 30 18 Z M 30 10 " clip-rule="nonzero"/></clipPath><clipPath id="defc741f07"><path d="M 4 16 L 33 16 L 33 34.507812 L 4 34.507812 Z M 4 16 " clip-rule="nonzero"/></clipPath></defs><g clip-path="url(#130df24885)"><g clip-path="url(#a5f954d917)"><path fill="url(#330fa3788a)" d="M 0 35.246094 L 0 37.007812 L 1.414062 37.007812 L 1.414062 35.246094 Z M 0 35.246094 " fill-rule="nonzero"/></g></g><g clip-path="url(#d569e05167)"><path fill="#404040" d="M 5.78125 6.480469 C 5.085938 6.480469 4.515625 5.910156 4.515625 5.214844 L 4.515625 3.949219 C 4.515625 3.25 5.085938 2.683594 5.78125 2.683594 L 31.09375 2.683594 C 31.792969 2.683594 32.359375 3.25 32.359375 3.949219 L 32.359375 5.214844 C 32.359375 5.910156 31.792969 6.480469 31.09375 6.480469 Z M 5.78125 6.480469 " fill-opacity="1" fill-rule="nonzero"/></g><g clip-path="url(#68e16d8f10)"><path fill="#404040" d="M 4.554688 10.277344 L 2.363281 16.566406 C 2.363281 16.566406 2.339844 17.863281 3.648438 17.863281 C 4.742188 17.863281 4.746094 16.566406 4.746094 16.566406 L 6.613281 10.277344 Z M 4.554688 10.277344 " fill-opacity="1" fill-rule="nonzero"/></g><path fill="#404040" d="M 9.699219 10.277344 L 8.316406 16.566406 C 8.316406 16.566406 8.328125 17.863281 9.578125 17.863281 C 10.828125 17.863281 10.699219 16.566406 10.699219 16.566406 L 11.753906 10.277344 Z M 9.699219 10.277344 " fill-opacity="1" fill-rule="nonzero"/><path fill="#404040" d="M 14.839844 10.277344 L 14.269531 16.566406 C 14.269531 16.566406 14.285156 17.863281 15.492188 17.863281 C 16.699219 17.863281 16.652344 16.566406 16.652344 16.566406 L 16.894531 10.277344 Z M 14.839844 10.277344 " fill-opacity="1" fill-rule="nonzero"/><path fill="#404040" d="M 19.980469 10.277344 L 20.222656 16.566406 C 20.222656 16.566406 20.179688 17.863281 21.425781 17.863281 C 22.667969 17.863281 22.605469 16.566406 22.605469 16.566406 L 22.039062 10.277344 Z M 19.980469 10.277344 " fill-opacity="1" fill-rule="nonzero"/><path fill="#404040" d="M 25.125 10.277344 L 26.179688 16.566406 C 26.179688 16.566406 26.269531 17.863281 27.4375 17.863281 C 28.523438 17.863281 28.5625 16.566406 28.5625 16.566406 L 27.179688 10.277344 Z M 25.125 10.277344 " fill-opacity="1" fill-rule="nonzero"/><g clip-path="url(#c43bce1eca)"><path fill="#404040" d="M 30.265625 10.277344 L 32.136719 16.566406 C 32.136719 16.566406 32.0625 17.863281 33.371094 17.863281 C 34.675781 17.863281 34.515625 16.566406 34.515625 16.566406 L 32.320312 10.277344 Z M 30.265625 10.277344 " fill-opacity="1" fill-rule="nonzero"/></g><path fill="#404040" d="M 4.515625 11.542969 L 4.515625 9.011719 C 4.515625 8.3125 5.085938 7.746094 5.78125 7.746094 L 31.09375 7.746094 C 31.792969 7.746094 32.359375 8.3125 32.359375 9.011719 L 32.359375 11.542969 Z M 4.515625 11.542969 " fill-opacity="1" fill-rule="nonzero"/><g clip-path="url(#defc741f07)"><path fill="#404040" d="M 32.105469 16.605469 C 32.109375 16.632812 32.117188 16.65625 32.117188 16.6875 C 32.117188 17.675781 31.3125 18.476562 30.324219 18.476562 C 29.335938 18.476562 28.53125 17.675781 28.53125 16.6875 C 28.53125 16.65625 28.539062 16.632812 28.539062 16.605469 L 26.175781 16.605469 C 26.175781 16.632812 26.183594 16.65625 26.183594 16.6875 C 26.183594 17.675781 25.382812 18.476562 24.390625 18.476562 C 23.402344 18.476562 22.601562 17.675781 22.601562 16.6875 C 22.601562 16.65625 22.605469 16.632812 22.609375 16.605469 L 20.222656 16.605469 C 20.222656 16.632812 20.230469 16.65625 20.230469 16.6875 C 20.230469 17.675781 19.429688 18.476562 18.441406 18.476562 C 17.449219 18.476562 16.648438 17.675781 16.648438 16.6875 C 16.648438 16.65625 16.65625 16.632812 16.65625 16.605469 L 14.269531 16.605469 C 14.269531 16.632812 14.277344 16.65625 14.277344 16.6875 C 14.277344 17.675781 13.476562 18.476562 12.484375 18.476562 C 11.496094 18.476562 10.695312 17.675781 10.695312 16.6875 C 10.695312 16.65625 10.703125 16.632812 10.703125 16.605469 L 8.316406 16.605469 C 8.316406 16.632812 8.324219 16.65625 8.324219 16.6875 C 8.324219 17.675781 7.523438 18.476562 6.53125 18.476562 C 5.542969 18.476562 4.742188 17.675781 4.742188 16.6875 C 4.742188 16.65625 4.746094 16.632812 4.75 16.605469 L 4.515625 16.605469 L 4.515625 33.058594 C 4.515625 33.753906 5.085938 34.324219 5.78125 34.324219 L 22.234375 34.324219 L 22.234375 21.667969 L 28.5625 21.667969 L 28.5625 34.324219 L 31.09375 34.324219 C 31.792969 34.324219 32.359375 33.753906 32.359375 33.058594 L 32.359375 16.605469 Z M 18.4375 30.527344 L 8.3125 30.527344 L 8.3125 21.667969 L 18.4375 21.667969 Z M 18.4375 30.527344 " fill-opacity="1" fill-rule="nonzero"/></g></svg>