<svg xmlns="http://www.w3.org/2000/svg" xmlns:xlink="http://www.w3.org/1999/xlink" width="190" zoomAndPan="magnify" viewBox="0 0 142.5 37.5" height="50" preserveAspectRatio="xMidYMid meet" version="1.0"><defs><g/><clipPath id="b96ded861a"><path d="M 0.691406 4 L 36 4 L 36 36.265625 L 0.691406 36.265625 Z M 0.691406 4 " clip-rule="nonzero"/></clipPath><clipPath id="86ce9970cb"><path d="M 23 0 L 38.4375 0 L 38.4375 15 L 23 15 Z M 23 0 " clip-rule="nonzero"/></clipPath></defs><g fill="#fcb714" fill-opacity="1"><g transform="translate(34.702659, 35.019695)"><g><path d="M 0.828125 0 L 0.828125 -18.84375 L 4.578125 -18.84375 L 4.578125 -12.109375 L 6.359375 -12.109375 L 6.359375 -18.84375 L 10.109375 -18.84375 L 10.109375 0 L 6.359375 0 L 6.359375 -8.5625 L 4.578125 -8.5625 L 4.578125 0 Z M 0.828125 0 "/></g></g></g><g fill="#fcb714" fill-opacity="1"><g transform="translate(45.075014, 35.019695)"><g><path d="M 0.328125 0 L 2.15625 -18.84375 L 8.53125 -18.84375 L 10.328125 0 L 6.75 0 L 6.5 -3.046875 L 4.21875 -3.046875 L 4 0 Z M 4.5 -6.0625 L 6.203125 -6.0625 L 5.375 -15.640625 L 5.203125 -15.640625 Z M 4.5 -6.0625 "/></g></g></g><g fill="#fcb714" fill-opacity="1"><g transform="translate(55.140355, 35.019695)"><g><path d="M 0.828125 -18.84375 L 5.9375 -18.84375 C 7.3125 -18.84375 8.3125 -18.503906 8.9375 -17.828125 C 9.5625 -17.160156 9.875 -16.066406 9.875 -14.546875 L 9.875 -13.71875 C 9.875 -11.914062 9.226562 -10.835938 7.9375 -10.484375 C 8.726562 -10.273438 9.285156 -9.796875 9.609375 -9.046875 C 9.929688 -8.304688 10.09375 -7.320312 10.09375 -6.09375 C 10.09375 -4.09375 9.789062 -2.578125 9.1875 -1.546875 C 8.59375 -0.515625 7.507812 0 5.9375 0 L 0.828125 0 Z M 5.28125 -11.765625 C 5.601562 -11.765625 5.820312 -11.882812 5.9375 -12.125 C 6.0625 -12.363281 6.125 -12.703125 6.125 -13.140625 L 6.125 -15.03125 C 6.125 -15.644531 5.851562 -15.953125 5.3125 -15.953125 L 4.515625 -15.953125 L 4.515625 -11.765625 Z M 4.890625 -3.3125 C 5.867188 -3.3125 6.359375 -3.78125 6.359375 -4.71875 L 6.359375 -7.0625 C 6.359375 -7.632812 6.273438 -8.066406 6.109375 -8.359375 C 5.941406 -8.648438 5.644531 -8.796875 5.21875 -8.796875 L 4.515625 -8.796875 L 4.515625 -3.328125 Z M 4.890625 -3.3125 "/></g></g></g><g fill="#fcb714" fill-opacity="1"><g transform="translate(65.074108, 35.019695)"><g><path d="M 0.65625 0 L 0.65625 -18.84375 L 4.296875 -18.84375 L 4.296875 0 Z M 0.65625 0 "/></g></g></g><g fill="#fcb714" fill-opacity="1"><g transform="translate(69.481573, 35.019695)"><g><path d="M 2.453125 0 L 2.453125 -15.21875 L 0.21875 -15.21875 L 0.21875 -18.84375 L 8.46875 -18.84375 L 8.46875 -15.21875 L 6.234375 -15.21875 L 6.234375 0 Z M 2.453125 0 "/></g></g></g><g fill="#fcb714" fill-opacity="1"><g transform="translate(77.595165, 35.019695)"><g><path d="M 0.328125 0 L 2.15625 -18.84375 L 8.53125 -18.84375 L 10.328125 0 L 6.75 0 L 6.5 -3.046875 L 4.21875 -3.046875 L 4 0 Z M 4.5 -6.0625 L 6.203125 -6.0625 L 5.375 -15.640625 L 5.203125 -15.640625 Z M 4.5 -6.0625 "/></g></g></g><g fill="#fcb714" fill-opacity="1"><g transform="translate(87.660505, 35.019695)"><g><path d="M 2.453125 0 L 2.453125 -15.21875 L 0.21875 -15.21875 L 0.21875 -18.84375 L 8.46875 -18.84375 L 8.46875 -15.21875 L 6.234375 -15.21875 L 6.234375 0 Z M 2.453125 0 "/></g></g></g><g fill="#fcb714" fill-opacity="1"><g transform="translate(95.774094, 35.019695)"><g><path d="M 0.828125 -18.84375 L 6.625 -18.84375 C 7.539062 -18.84375 8.25 -18.632812 8.75 -18.21875 C 9.257812 -17.800781 9.601562 -17.210938 9.78125 -16.453125 C 9.957031 -15.703125 10.046875 -14.742188 10.046875 -13.578125 C 10.046875 -12.515625 9.90625 -11.679688 9.625 -11.078125 C 9.351562 -10.472656 8.875 -10.054688 8.1875 -9.828125 C 8.75 -9.710938 9.160156 -9.425781 9.421875 -8.96875 C 9.679688 -8.519531 9.8125 -7.90625 9.8125 -7.125 L 9.765625 0 L 6.078125 0 L 6.078125 -7.375 C 6.078125 -7.894531 5.972656 -8.226562 5.765625 -8.375 C 5.566406 -8.519531 5.195312 -8.59375 4.65625 -8.59375 L 4.65625 0 L 0.828125 0 Z M 5.578125 -11.875 C 6.097656 -11.875 6.359375 -12.441406 6.359375 -13.578125 C 6.359375 -14.078125 6.335938 -14.453125 6.296875 -14.703125 C 6.253906 -14.953125 6.171875 -15.125 6.046875 -15.21875 C 5.929688 -15.3125 5.765625 -15.359375 5.546875 -15.359375 L 4.671875 -15.359375 L 4.671875 -11.875 Z M 5.578125 -11.875 "/></g></g></g><g fill="#fcb714" fill-opacity="1"><g transform="translate(105.663989, 35.019695)"><g><path d="M 5.328125 0.171875 C 3.804688 0.171875 2.648438 -0.289062 1.859375 -1.21875 C 1.078125 -2.144531 0.6875 -3.453125 0.6875 -5.140625 L 0.6875 -14.109375 C 0.6875 -15.734375 1.078125 -16.957031 1.859375 -17.78125 C 2.648438 -18.601562 3.804688 -19.015625 5.328125 -19.015625 C 6.847656 -19.015625 8.003906 -18.601562 8.796875 -17.78125 C 9.585938 -16.957031 9.984375 -15.734375 9.984375 -14.109375 L 9.984375 -5.140625 C 9.984375 -3.441406 9.585938 -2.128906 8.796875 -1.203125 C 8.003906 -0.285156 6.847656 0.171875 5.328125 0.171875 Z M 5.328125 -3.296875 C 5.660156 -3.296875 5.882812 -3.441406 6 -3.734375 C 6.125 -4.023438 6.1875 -4.429688 6.1875 -4.953125 L 6.1875 -14.171875 C 6.1875 -14.578125 6.128906 -14.90625 6.015625 -15.15625 C 5.910156 -15.414062 5.691406 -15.546875 5.359375 -15.546875 C 4.722656 -15.546875 4.40625 -15.070312 4.40625 -14.125 L 4.40625 -4.9375 C 4.40625 -4.394531 4.46875 -3.984375 4.59375 -3.703125 C 4.726562 -3.429688 4.972656 -3.296875 5.328125 -3.296875 Z M 5.328125 -3.296875 "/></g></g></g><g fill="#fcb714" fill-opacity="1"><g transform="translate(115.751261, 35.019695)"><g><path d="M 0.828125 0 L 0.828125 -18.84375 L 4.71875 -18.84375 L 6.453125 -9.828125 L 6.453125 -18.84375 L 10.09375 -18.84375 L 10.09375 0 L 6.40625 0 L 4.515625 -9.4375 L 4.515625 0 Z M 0.828125 0 "/></g></g></g><g fill="#fcb714" fill-opacity="1"><g transform="translate(126.101692, 35.019695)"><g><path d="M 0.65625 0 L 0.65625 -18.84375 L 4.296875 -18.84375 L 4.296875 0 Z M 0.65625 0 "/></g></g></g><g fill="#fcb714" fill-opacity="1"><g transform="translate(130.509159, 35.019695)"><g><path d="M 5.21875 0.171875 C 3.84375 0.171875 2.742188 -0.253906 1.921875 -1.109375 C 1.097656 -1.972656 0.6875 -3.160156 0.6875 -4.671875 L 0.6875 -13.359375 C 0.6875 -15.234375 1.054688 -16.644531 1.796875 -17.59375 C 2.546875 -18.539062 3.71875 -19.015625 5.3125 -19.015625 C 6.695312 -19.015625 7.8125 -18.632812 8.65625 -17.875 C 9.507812 -17.113281 9.9375 -16.019531 9.9375 -14.59375 L 9.9375 -11.34375 L 6.1875 -11.34375 L 6.1875 -14.125 C 6.1875 -14.664062 6.117188 -15.035156 5.984375 -15.234375 C 5.859375 -15.441406 5.632812 -15.546875 5.3125 -15.546875 C 4.96875 -15.546875 4.734375 -15.429688 4.609375 -15.203125 C 4.492188 -14.972656 4.4375 -14.628906 4.4375 -14.171875 L 4.4375 -4.71875 C 4.4375 -4.21875 4.507812 -3.851562 4.65625 -3.625 C 4.800781 -3.40625 5.019531 -3.296875 5.3125 -3.296875 C 5.894531 -3.296875 6.1875 -3.769531 6.1875 -4.71875 L 6.1875 -8.109375 L 9.984375 -8.109375 L 9.984375 -4.5625 C 9.984375 -1.40625 8.394531 0.171875 5.21875 0.171875 Z M 5.21875 0.171875 "/></g></g></g><g clip-path="url(#b96ded861a)"><path fill="#fcb714" d="M 35.175781 20.074219 C 35.113281 20.238281 35.007812 20.371094 34.863281 20.472656 C 34.714844 20.574219 34.554688 20.625 34.375 20.625 L 30.679688 20.625 L 30.679688 35.234375 C 30.679688 35.46875 30.597656 35.667969 30.429688 35.835938 C 30.265625 36 30.0625 36.082031 29.828125 36.082031 L 21.324219 36.082031 C 21.089844 36.082031 20.890625 35.996094 20.722656 35.832031 C 20.558594 35.667969 20.476562 35.46875 20.472656 35.234375 L 20.472656 26.429688 L 16.050781 26.429688 L 16.050781 35.234375 C 16.050781 35.46875 15.96875 35.667969 15.800781 35.832031 C 15.636719 35.996094 15.4375 36.082031 15.203125 36.082031 L 6.1875 36.082031 C 5.953125 36.082031 5.753906 36 5.585938 35.835938 C 5.421875 35.667969 5.339844 35.46875 5.339844 35.234375 L 5.339844 20.625 L 1.636719 20.625 C 1.460938 20.621094 1.304688 20.570312 1.160156 20.472656 C 1.015625 20.371094 0.910156 20.238281 0.851562 20.074219 C 0.789062 19.910156 0.777344 19.742188 0.820312 19.570312 C 0.859375 19.398438 0.949219 19.257812 1.078125 19.140625 L 5.339844 15.351562 L 5.339844 6.136719 C 5.335938 5.902344 5.417969 5.699219 5.585938 5.535156 C 5.75 5.367188 5.953125 5.285156 6.1875 5.289062 L 9.457031 5.289062 C 9.691406 5.285156 9.890625 5.371094 10.058594 5.535156 C 10.222656 5.699219 10.304688 5.902344 10.304688 6.136719 L 10.304688 10.9375 L 17.445312 4.589844 C 17.605469 4.445312 17.792969 4.371094 18.007812 4.371094 C 18.222656 4.371094 18.414062 4.445312 18.574219 4.589844 L 21.605469 7.28125 C 21.796875 7.449219 21.894531 7.660156 21.890625 7.917969 L 21.890625 16.4375 L 31.570312 16.4375 C 31.738281 16.4375 31.894531 16.484375 32.035156 16.574219 C 32.070312 16.601562 32.164062 16.664062 32.1875 16.683594 L 34.945312 19.136719 C 35.078125 19.253906 35.164062 19.398438 35.207031 19.570312 C 35.246094 19.742188 35.238281 19.90625 35.175781 20.074219 Z M 35.175781 20.074219 " fill-opacity="1" fill-rule="nonzero"/></g><path fill="#fcb714" d="M 24.152344 15.609375 C 24.363281 15.609375 24.570312 15.570312 24.765625 15.488281 C 24.960938 15.40625 25.132812 15.292969 25.285156 15.140625 C 25.433594 14.992188 25.550781 14.816406 25.632812 14.621094 C 25.710938 14.425781 25.753906 14.222656 25.753906 14.007812 C 25.753906 13.796875 25.710938 13.59375 25.632812 13.398438 C 25.550781 13.199219 25.433594 13.027344 25.285156 12.878906 C 25.132812 12.726562 24.960938 12.613281 24.765625 12.53125 C 24.570312 12.449219 24.363281 12.410156 24.152344 12.410156 C 23.941406 12.410156 23.734375 12.449219 23.539062 12.53125 C 23.34375 12.613281 23.171875 12.726562 23.019531 12.878906 C 22.871094 13.027344 22.753906 13.199219 22.671875 13.398438 C 22.59375 13.59375 22.550781 13.796875 22.550781 14.007812 C 22.550781 14.222656 22.59375 14.425781 22.671875 14.621094 C 22.753906 14.816406 22.871094 14.992188 23.019531 15.140625 C 23.171875 15.292969 23.34375 15.40625 23.539062 15.488281 C 23.734375 15.570312 23.941406 15.609375 24.152344 15.609375 Z M 24.152344 13.914062 C 24.214844 13.914062 24.246094 13.945312 24.25 14.007812 C 24.25 14.113281 24.054688 14.109375 24.054688 14.007812 C 24.058594 13.945312 24.089844 13.914062 24.152344 13.914062 Z M 24.152344 13.914062 " fill-opacity="1" fill-rule="nonzero"/><path fill="#fcb714" d="M 24.152344 10.476562 C 24.621094 10.476562 25.070312 10.566406 25.503906 10.746094 C 25.933594 10.925781 26.316406 11.183594 26.648438 11.511719 C 26.976562 11.84375 27.234375 12.226562 27.414062 12.65625 C 27.59375 13.089844 27.683594 13.539062 27.683594 14.007812 C 27.691406 14.238281 27.777344 14.429688 27.941406 14.589844 C 28.105469 14.75 28.300781 14.828125 28.53125 14.828125 C 28.761719 14.828125 28.957031 14.75 29.121094 14.589844 C 29.285156 14.429688 29.371094 14.238281 29.378906 14.007812 C 29.378906 13.664062 29.347656 13.324219 29.277344 12.988281 C 29.210938 12.652344 29.113281 12.324219 28.980469 12.007812 C 28.847656 11.691406 28.6875 11.390625 28.496094 11.105469 C 28.308594 10.820312 28.089844 10.554688 27.847656 10.3125 C 27.605469 10.070312 27.339844 9.851562 27.054688 9.664062 C 26.769531 9.472656 26.46875 9.3125 26.152344 9.179688 C 25.835938 9.046875 25.507812 8.949219 25.171875 8.882812 C 24.835938 8.8125 24.496094 8.78125 24.152344 8.78125 C 23.921875 8.789062 23.730469 8.875 23.570312 9.039062 C 23.410156 9.203125 23.332031 9.398438 23.332031 9.628906 C 23.332031 9.859375 23.410156 10.054688 23.570312 10.21875 C 23.730469 10.382812 23.921875 10.46875 24.152344 10.476562 Z M 24.152344 10.476562 " fill-opacity="1" fill-rule="nonzero"/><path fill="#fcb714" d="M 24.152344 6.097656 C 24.671875 6.097656 25.1875 6.148438 25.695312 6.25 C 26.203125 6.351562 26.699219 6.503906 27.179688 6.703125 C 27.65625 6.902344 28.113281 7.144531 28.546875 7.433594 C 28.976562 7.722656 29.375 8.050781 29.742188 8.417969 C 30.109375 8.785156 30.4375 9.183594 30.726562 9.613281 C 31.015625 10.046875 31.257812 10.503906 31.457031 10.980469 C 31.65625 11.460938 31.808594 11.957031 31.910156 12.464844 C 32.011719 12.972656 32.0625 13.488281 32.0625 14.007812 C 32.070312 14.238281 32.15625 14.429688 32.320312 14.589844 C 32.484375 14.75 32.679688 14.828125 32.910156 14.828125 C 33.140625 14.828125 33.335938 14.75 33.5 14.589844 C 33.664062 14.429688 33.75 14.238281 33.757812 14.007812 C 33.757812 13.378906 33.695312 12.753906 33.574219 12.136719 C 33.449219 11.515625 33.265625 10.917969 33.023438 10.335938 C 32.78125 9.753906 32.488281 9.199219 32.136719 8.675781 C 31.785156 8.152344 31.386719 7.667969 30.941406 7.21875 C 30.496094 6.773438 30.011719 6.375 29.488281 6.027344 C 28.964844 5.675781 28.410156 5.378906 27.828125 5.136719 C 27.246094 4.898438 26.644531 4.714844 26.027344 4.589844 C 25.410156 4.46875 24.785156 4.40625 24.15625 4.402344 C 23.925781 4.410156 23.730469 4.496094 23.574219 4.660156 C 23.414062 4.828125 23.332031 5.023438 23.332031 5.253906 C 23.332031 5.480469 23.414062 5.679688 23.574219 5.84375 C 23.730469 6.007812 23.925781 6.09375 24.15625 6.101562 Z M 24.152344 6.097656 " fill-opacity="1" fill-rule="nonzero"/><g clip-path="url(#86ce9970cb)"><path fill="#fcb714" d="M 24.152344 0.0195312 C 23.921875 0.0273438 23.730469 0.113281 23.570312 0.28125 C 23.410156 0.445312 23.332031 0.640625 23.332031 0.871094 C 23.332031 1.097656 23.410156 1.296875 23.570312 1.460938 C 23.730469 1.625 23.921875 1.710938 24.152344 1.71875 C 24.957031 1.71875 25.757812 1.800781 26.546875 1.957031 C 27.339844 2.117188 28.109375 2.347656 28.851562 2.65625 C 29.597656 2.96875 30.304688 3.347656 30.976562 3.792969 C 31.648438 4.242188 32.265625 4.75 32.839844 5.320312 C 33.410156 5.894531 33.917969 6.511719 34.367188 7.183594 C 34.8125 7.855469 35.191406 8.5625 35.503906 9.308594 C 35.8125 10.050781 36.042969 10.820312 36.203125 11.613281 C 36.359375 12.402344 36.441406 13.203125 36.441406 14.007812 C 36.449219 14.238281 36.535156 14.429688 36.699219 14.589844 C 36.863281 14.75 37.0625 14.828125 37.289062 14.828125 C 37.519531 14.828125 37.714844 14.75 37.878906 14.589844 C 38.046875 14.429688 38.132812 14.238281 38.140625 14.007812 C 38.136719 13.089844 38.046875 12.179688 37.867188 11.28125 C 37.6875 10.378906 37.421875 9.507812 37.070312 8.65625 C 36.71875 7.808594 36.285156 7.003906 35.777344 6.242188 C 35.265625 5.476562 34.6875 4.773438 34.039062 4.121094 C 33.386719 3.472656 32.683594 2.894531 31.917969 2.382812 C 31.15625 1.875 30.351562 1.441406 29.503906 1.089844 C 28.652344 0.738281 27.78125 0.472656 26.878906 0.292969 C 25.980469 0.113281 25.070312 0.0234375 24.152344 0.0195312 Z M 24.152344 0.0195312 " fill-opacity="1" fill-rule="nonzero"/></g></svg>